<?xml version="1.0" encoding="UTF-8"?>
<svg id="Capa_1" data-name="Capa 1" xmlns="http://www.w3.org/2000/svg" xmlns:xlink="http://www.w3.org/1999/xlink" viewBox="0 0 432.76 427.09">
  <defs>
    <style>
      .cls-1 {
        fill: #3c2513;
      }

      .cls-2 {
        fill: #5b3812;
      }

      .cls-3 {
        clip-path: url(#clippath-2);
      }

      .cls-3, .cls-4, .cls-5, .cls-6 {
        fill: none;
      }

      .cls-7 {
        fill: #d6994b;
      }

      .cls-8 {
        fill: #edc287;
      }

      .cls-9 {
        fill: #d3964e;
      }

      .cls-10 {
        fill: #c7853c;
      }

      .cls-5 {
        clip-path: url(#clippath);
      }

      .cls-11 {
        fill: #e1a86b;
      }

      .cls-6 {
        clip-path: url(#clippath-1);
      }

      .cls-12 {
        fill: #e0ae61;
      }
    </style>
    <clipPath id="clippath">
      <rect class="cls-4" width="432.76" height="427.09"/>
    </clipPath>
    <clipPath id="clippath-1">
      <rect class="cls-4" width="432.76" height="427.09"/>
    </clipPath>
    <clipPath id="clippath-2">
      <rect class="cls-4" width="432.76" height="427.09"/>
    </clipPath>
  </defs>
  <g class="cls-5">
    <path class="cls-1" d="m220.41,427.09c-.38,0-.76-.01-1.15-.02-3-.09-5.86-.56-8.63-.99-1.67-.27-3.24-.52-4.76-.69-11.59-1.23-21.25-3.53-31.33-7.46l-2.65-1.03c-8.92-3.46-18.13-7.03-26.75-12.16-2.33-1.39-4.32-2.95-6.26-4.46-1.31-1.03-2.57-2.01-3.82-2.85-.99-.66-2-1.31-3.01-1.95-2.39-1.53-4.85-3.1-7.28-5.02-7.06-5.6-13.54-11.85-19.81-17.88l-1.29-1.24c-.6-.58-1.68-.88-3.54-1.35-1.12-.28-2.39-.6-3.74-1.09-4.77-1.73-8.94-3.85-13.13-6.67-5.38-3.63-11.41-6.14-17.81-8.82-2.29-.95-4.66-1.94-7.01-2.98-.63-.28-1.26-.56-1.87-.82-2.88-1.23-6.13-2.62-9.16-5.04-1.79-1.43-3.33-2.96-4.81-4.43-1.23-1.22-2.39-2.38-3.59-3.35-.15-.13-.33-.26-.5-.39-1.7-.97-3.36-2.02-4.94-3.15-.75-.41-1.49-.82-2.25-1.23-4.89-2.65-10.44-5.66-14.47-11.16-5.77-7.91-11.05-15.91-12.38-26.83-.44-3.58-.34-6.91-.24-10.15.05-1.89.11-3.68.05-5.45-.09-3.2-.97-6.62-1.88-10.23l-.43-1.67c-2.58-10.36-2.08-19.49-1.56-29.17v-.17c.18-3.15.14-6.46.11-9.97-.07-7-.14-14.23,1.42-21.18.52-2.34,1.15-4.61,1.75-6.81.58-2.11,1.14-4.08,1.57-6.07.3-1.28.49-2.62.69-4.03.37-2.47.77-5.29,1.8-8.23l.19-.54c1.44-4.12,2.94-8.37,5.65-12.44,0,0,.75-1.12.98-1.49.31-2.02.58-3.93.83-5.78.54-4.12,1.33-9.01,3.07-14.05,1.3-3.8,3.16-6.76,4.96-9.61.6-.96,1.21-1.93,1.8-2.95.81-1.39,1.31-3.05,1.92-4.97.81-2.58,1.7-5.51,3.55-8.42,2.18-3.46,4.55-6.35,6.86-9.14.76-.91,1.52-1.85,2.3-2.82,1.44-1.8,2.95-3.55,4.39-5.24,2.21-2.57,4.3-5,6.12-7.53,1.49-2.08,3.09-3.97,4.63-5.79,1.6-1.88,3.11-3.67,4.37-5.51,5.24-7.65,10.79-15,20.78-20.83,1.86-1.09,3.78-2.06,5.64-2.98,2.73-1.39,5.32-2.69,7.42-4.2,1.36-.98,2.65-2.26,4.01-3.6,1.79-1.76,3.81-3.77,6.39-5.49,2.21-1.48,4.35-2.56,6.14-3.36,2-2.37,3.93-4.23,6.01-5.79,5.3-3.97,10.99-7.29,16.47-10.5l3.37-1.98c2.5-1.44,4.87-2.81,6.87-4.48l.77-.64c1.56-1.31,3.33-2.82,6.01-3.94,4.49-1.87,9.31-3.4,13.96-4.87,1.14-.36,2.26-.71,3.36-1.07,2.04-.66,3.98-1.04,5.86-1.4,1.59-.31,3.08-.59,4.4-1.02,2.83-.92,5.77-2.27,8.61-3.58,5.6-2.57,10.3-3.72,15.23-3.72.27,0,.53,0,.81.01.69-.14,1.46-.21,2.33-.21.82,0,1.85.02,2.76.04.6.02,1.15.04,1.48.04.22,0,.52-.02.86-.04.78-.04,1.73-.08,2.76-.08,1.35,0,2.55.07,3.67.22,3.6.5,7.14.76,10.54.76,2.44,0,4.85-.14,7.19-.39l.25-.04c6.57-.72,13.37-1.48,20.16-1.48,5.3,0,10.15.45,14.8,1.39,11.73,2.34,23.24,6.13,34.2,11.27,4.44,2.08,9.53,4.65,13.78,8.86l1.39,1.39c3.16,3.15,6.14,6.13,9.54,8.73,3.54,2.7,7.31,5.09,11.28,7.64,5.2,3.32,10.57,6.75,15.53,10.96,4.7,4,9.45,8.93,13.73,14.23,1.39,1.73,3.03,3.07,4.93,4.61,1.15.95,2.33,1.92,3.6,3.07,2.58,2.36,4.52,4.94,6.39,7.42,1.46,1.93,2.84,3.77,4.37,5.26,3.18,3.11,7.21,7.34,10,12.33,1.17,2.11,1.79,4.27,2.29,6.03.24.84.47,1.7.69,2.15,1.2,2.66,1.69,5.02,2.18,7.29l.27,1.24c.46,2.07,1.79,4.43,3.2,6.93.88,1.53,1.76,3.11,2.56,4.8.62,1.3,1.23,2.6,1.85,3.9,4.13,8.69,8.41,17.69,11.06,27.8,2.14,8.18,2.62,16.43,3.07,24.4.21,3.79.43,7.36.79,10.94.59,5.69,1.98,11.24,3.45,17.11,1.73,6.88,3.5,13.98,3.99,21.55.4,6.43.65,13.96-.54,21.07-.79,4.71-2.71,8.77-4.42,12.35-.64,1.36-1.25,2.64-1.8,3.94-.95,2.26-1.43,4.98-1.95,7.86-.38,2.08-.76,4.25-1.36,6.44-1.1,4.1-2.81,7.42-4.45,10.63-.56,1.07-1.11,2.15-1.65,3.28-1.73,3.62-3.26,7.28-4.87,11.15-2.57,6.18-5.23,12.57-8.74,18.68-5.78,10.1-14.04,18.45-22.72,26.83-1.44,1.4-2.72,3.41-4.07,5.54-1.31,2.07-2.68,4.21-4.45,6.26-1.37,1.59-2.6,3.41-3.9,5.34-1.4,2.07-2.84,4.23-4.62,6.31-5.98,7.04-14.07,10.76-24.07,11.07-2.64,1.53-5.48,3.07-8.55,4.35-3.29,1.37-6.54,2.31-9.68,3.22-1.93.56-3.75,1.08-5.55,1.69-3.37,1.15-6.74,2.91-10.88,5.72-3.43,2.31-7.13,4.06-10.71,5.75-.97.46-1.94.92-2.9,1.39-8.51,4.17-18.17,8.89-28.89,8.89-1.41,0-2.83-.09-4.2-.26-.43-.05-.86-.07-1.33-.07-3.63,0-7.9,1.55-12.41,3.18-2.44.89-4.96,1.81-7.54,2.53-4.94,1.39-10.27,2.66-15.76,2.66"/>
    <path class="cls-12" d="m412.72,189.83c-1.99-13.67-7.86-25.98-13.63-38.38-5.51-11.84-9.18-23.86-14.79-36.1-10.96-23.94-27.59-43.57-47.2-60.73-10.35-9.03-22.66-15.55-34.32-22.51-11.53-6.9-25.64-10.89-38.8-13.15-14.1-2.43-28.45-3.75-42.76-3.52-14.79.24-28.56,4-42.87,7.13-12.91,2.82-27.48,7.19-38.02,15.32-1.31,1.02-2.62,2.13-3.97,3.15-.14.09-.31.2-.52.34-2.25,1.44-4.61,2.72-6.86,4.17-6.18,3.98-12.02,8.88-17.56,13.78-3.47,1.79-6.84,3.67-10.03,5.61-21.75,13.24-42.24,31.66-56.57,52.9-15.66,23.22-24.78,47.7-29.23,75.38-2.21,13.73-2.57,27.42-4.29,41.18-1.7,13.76-.9,29.01.79,42.76,2.84,23.22,11.09,45.09,33.14,55.47,8.99,4.24,18.42,6.88,27.85,9.91,10.15,3.28,19.57,8.15,28.49,14.04,10.5,6.95,19.11,16.87,29,24.77,10.17,8.1,21.7,14.09,34.13,17.91,25.95,7.98,51.15,12.05,78.12,7.34,5.88-1.03,11.74-1.66,17.64-2.62,5.6-.9,11.33-4.16,15.82-5.6,4.45-1.43,11.07-2.05,16.23-4,6.59-2.5,12.72-5.94,19.16-8.77,23.86-10.47,46.72-20.61,63.28-41.85,15.96-20.48,29.07-42.42,34.71-68.08,6-27.29,7.08-58.2,3.05-85.86"/>
    <path class="cls-2" d="m401.6,274.33c-.75,5.32-3.17,8.65-5.36,13.37-2.19,4.71-4.01,10.13-7.27,14.22-3.49,4.38-7.6,8.09-10.9,12.67-3.46,4.78-7.23,8.94-11.2,13.27-3.37,3.67-7.41,7-10.18,11.15-2.83,4.24-5.28,8.36-8.35,12.44-2.52,3.34-4.19,7.15-7.08,10.11-.59.38-1.2.76-1.8,1.12-3.78,2.25-7.58,4.52-11.38,6.71-7.79,4.51-16.71,5.41-24.92,8.84-3.11,1.29-6.46,2.6-9.45,4.18-3.29,1.74-6.74,2.07-10.29,3.36-6.9,2.5-15.59,5.17-22.95,5.06-4.45-.07-7.78-.78-12.25.38-3.84.99-7.66,2.31-11.25,4.03-7.87,3.77-14.49,6.44-23.19,5.91-8.96-.56-16.95-.96-25.49-4.07-9.03-3.29-18.08-6.77-26.57-11.3-6.95-3.72-13.49-8.63-19.77-13.39-2.47-1.87-4.63-4.06-6.56-6.48-3.28-4.11-6.72-7.86-10.29-11.72-5.8-6.28-11.95-9.66-20.48-10.53-8.11-.82-15.51-4.19-23.5-5.46-6.87-1.1-16.35-2.88-22.19-7.14-6.48-4.71-8.92-12.8-15.13-17.62-3.36-2.62-5.88-4.03-7.61-8.02-1.31-3.03-2.84-5.94-3.92-9.06-2.85-8.15-1.65-16.69-3.99-24.97-2.75-9.68-7.1-17.68-7.72-27.89-.62-10.12-2.02-21.06-1.11-31.17.45-4.91,2.25-9.8,3-14.72.64-4.3.31-8.49,1.42-12.7.25-.96.51-1.92.76-2.89,1.41-2.64,2.72-5.36,3.62-8.06,3.18-9.58,2.33-19.88,8.31-28.43,2.49-3.55,4.36-6.63,5.61-10.81,1.39-4.58,4.33-7.78,7.42-11.3,6.69-7.58,12.53-15.97,19.11-23.58,6.45-7.47,10.31-15.68,19.1-20.84,7.34-4.31,14.57-7.66,20.35-14.05,3.47-3.85,7.78-6.59,12.21-9.16,3.92-2.29,5.3-4.45,8.34-7.7.24-.26.5-.51.76-.76,3.34-2.02,6.77-3.95,10.31-5.87,4.44-2.42,8.96-5.34,13.59-7.35,4.21-1.82,10.13-1.46,14.73-2.1,2.43-.33,4.84-.32,7.26-.3,2.68.01,5.35.04,8.03-.43,5.33-.91,10.23-3.08,15.38-4.61,2.96-.86,8.04-2.12,9.8-2.64,2.56-.76,7.94-2.24,11.74-2.39,2.01-.07,4.03-.05,6.04-.01,2.87.05,5.74.11,8.63-.18,5.77-.57,11.33-1.34,17.14-1.1,10.5.41,19.77,5.78,29.07,10.37,7.66,3.78,15.57,6.99,22.98,11.15,4.14,2.34,7.78,5.2,11.63,7.99,4.42,3.2,9.32,5.55,13.49,9.07,7.76,6.52,15.21,11.97,21.42,20.26,3,4,6.03,6.97,7.98,11.52,1.97,4.57,5.08,9.35,8.45,12.99,1.43,1.55,3.08,2.88,4.49,4.45.71.81,1.4,1.66,2.02,2.53-.13-.18-.95-1.84-.08-.21,2.43,4.62,5.91,8.03,8.28,12.59,2.19,4.21,5.68,7.29,7.8,11.6,2.18,4.43,4.33,8.88,6.48,13.32,9.64,19.93,5.54,42.01,8.5,63.24,2.96,21.25-.04,42.03-3,63.08m24.46-42.65c-.83-13.15-6.05-25.29-7.41-38.4-1.18-11.47-.76-23.18-3.68-34.37-2.87-10.94-7.72-20.41-12.49-30.58-2.04-4.31-5.21-8.5-6.23-13.07-.58-2.59-.94-4.83-2.04-7.27-.96-2.13-1.34-5.21-2.71-7.68-2.25-4.01-5.64-7.68-8.89-10.87-3.94-3.86-6.52-8.8-10.6-12.53-3.3-3.01-6.44-4.96-9.2-8.38-3.84-4.76-8.24-9.41-12.89-13.38-8.24-7-17.98-11.86-26.54-18.39-4.26-3.24-7.78-6.9-11.57-10.64-3.4-3.39-7.66-5.59-11.98-7.61-10.41-4.87-21.52-8.55-32.77-10.8-11.27-2.26-21.99-1.04-33.27.2-6.44.72-12.92.51-19.29-.38-2.53-.34-5.27-.05-6.42-.05-.41,0-1.14-.02-1.93-.04-2.53-.06-5.77-.12-1.84.43-5.97-.83-10.77.39-16.21,2.89-3.03,1.39-6.12,2.81-9.31,3.84-3.37,1.09-6.9,1.33-10.28,2.42-5.47,1.76-11.51,3.54-16.81,5.75-2.12.89-3.42,2.17-5.17,3.61-2.9,2.4-6.11,4.12-9.33,6-5.97,3.52-12.08,6.99-17.63,11.14-2.29,1.72-4.16,3.75-5.87,5.93-2.24.92-4.38,1.95-6.56,3.42-3.92,2.62-6.49,6.25-10.22,8.95-4.1,2.96-9.2,4.96-13.59,7.53-8.44,4.93-13.28,11-18.72,18.91-2.73,4-6.24,7.46-9.08,11.41-3.27,4.55-7.22,8.67-10.71,13.05-3.08,3.86-6.1,7.19-8.74,11.37-2.65,4.2-2.9,8.97-5.34,13.19-2.24,3.85-4.76,7.12-6.24,11.41-1.44,4.19-2.2,8.43-2.77,12.8-.33,2.45-.69,4.88-1.05,7.31-.59.91-1.2,1.81-1.79,2.7-2.37,3.56-3.69,7.52-5.11,11.56-1.35,3.82-1.39,7.6-2.27,11.53-.98,4.31-2.37,8.55-3.33,12.87-2.13,9.51-.85,20.35-1.39,30.08-.52,9.65-.98,17.95,1.37,27.41,1.09,4.32,2.37,8.8,2.51,13.26.15,5.06-.49,9.97.13,15.01,1.14,9.29,5.83,16.42,11.2,23.8,5.24,7.19,14.36,9.27,21.04,14.76,2.94,2.4,5.38,5.36,8.32,7.72,2.92,2.34,6.29,3.52,9.66,5.02,8.74,3.9,17.81,6.96,25.77,12.34,3.75,2.52,7.47,4.42,11.74,5.96,3.43,1.26,6.86,1.29,9.52,3.85,6.7,6.43,13.36,12.93,20.65,18.72,3.15,2.5,6.55,4.45,9.87,6.67,3.36,2.26,6.31,5.07,9.79,7.14,8.99,5.34,18.78,8.95,28.46,12.73,9.95,3.88,19.11,5.94,29.69,7.07,4.29.45,8.64,1.5,12.94,1.65,5.02.18,10.19-1.07,14.99-2.42,7.9-2.2,16.1-6.76,23.74-5.83,10.43,1.27,20.38-3.55,29.56-8.04,4.27-2.1,8.92-4.05,12.83-6.7,3.92-2.64,7.91-4.94,12.4-6.46,4.95-1.68,9.99-2.73,14.84-4.76,3.27-1.36,6.25-3.05,9.23-4.82,7.99.07,15.29-2.12,20.98-8.83,3.15-3.71,5.36-8,8.55-11.7,3.3-3.82,5.35-8.76,8.93-12.23,7.91-7.64,16.08-15.72,21.61-25.38,5.38-9.39,8.74-19.68,13.37-29.41,2.07-4.35,4.43-8.09,5.71-12.81,1.35-4.98,1.59-10.36,3.59-15.13,2.08-4.96,4.89-9.47,5.8-14.86,1.08-6.36.86-13.17.46-19.57"/>
    <path class="cls-9" d="m380.92,213.18c-.32,6.09-1.61,11.98-2.07,18.03-.31,3.93.18,7.67-.63,11.58-.59,2.91-1.52,5.74-2.12,8.64-1.24,5.97-3.05,11.71-4.19,17.7-4.53,23.71-22.48,43.06-38.83,59.52-9.12,9.18-22.14,14.61-33.31,20.93-4.95,2.81-8.84,7.26-13.58,10.48-6.07,4.12-12.19,7.66-19.14,10.06-12.44,4.3-24.43,4.35-37.4,4.8-6.18.21-12.29,1.34-18.48,1.48-6.74.15-13.08-1.47-19.71-2.33-3.46-.45-7.03-.25-10.38-1.28-3.53-1.08-5.88-3.34-8.48-5.85-4.46-4.33-8.99-8.49-13.58-12.67-4.12-3.77-9.53-7.44-13.02-11.69-3.34-4.07-5.74-8.81-9.31-12.78-8.03-8.96-19.71-12.64-31.06-14.81-5.6-1.08-11.51-2.1-16.98-3.72-6.51-1.92-11.53-5.75-17.03-9.54-6.09-4.19-6.99-9.37-9.55-15.85-1.89-4.81-4.88-6.62-8.23-10.25-4.16-4.55-8-9.66-11.25-14.92-4.11-6.65-3.6-12.88-3.52-20.36.07-5.9-.78-11.33-1.39-17.17-.75-7.04.65-13.41,2.34-20.2,2.81-11.13,8.34-21.19,13.62-31.28,6.05-11.56,7.87-24.13,12.55-36.16,4.81-12.3,14.48-20.61,22.95-30.23,8.77-9.97,16.07-20.91,26.07-29.85,10.63-9.5,24.39-18.56,38.21-22.27.7-.19,1.08-.66,1.18-1.2l.27-.07c4.74-1.44,9.47-2.65,14.34-3.69,11.39-2.43,22.71-1.12,34.18-.89,4.91.11,9.84-.81,14.75-.84,7.22-.05,14.1,3.49,20.8,5.85,10.85,3.82,22.59,2.65,33.7,5.24,11.22,2.6,21,7.98,30.43,14.63,4.95,3.48,8.2,8.6,12.76,12.51,4.82,4.17,9.23,8.43,13.32,13.36,13.41,16.16,35.47,26.51,39.76,49.17,1.1,5.84,1.53,11.72,2.7,17.58,1.08,5.33,3.1,9.83,5.53,14.68,2.68,5.33,3.63,10.8,4.06,16.4-.26.3-.46.7-.51,1.21-.51,5.49.51,10.6.22,16.03m6.28,5.66c-.22-3.26-.72-6.43-1.24-9.59.75-8.95.94-19.46-2.44-27.35-2.53-5.93-5.01-10.36-5.23-17.04-.17-5.28-.26-10.9-.91-16.16-1.52-12.09-7.27-23.66-15.53-32.62-7.01-7.59-16.41-12.7-23.79-19.84-4.65-4.5-8.51-9.68-13.52-13.85-4.96-4.14-9.37-8.77-14.22-12.98-4.48-3.86-9.9-6.3-14.57-9.87-4.23-3.23-9.03-6.25-13.98-8.2-5.21-2.05-10.61-3.23-16.13-3.78-3.4-.32-6.74-1.09-10.12-1.5-3.77-.47-7.33-.32-10.99-1.37-6.16-1.76-12.43-4-18.8-4.8-5.67-.7-11.16.46-16.79,1.05-5.32.57-10.7.41-16.09.27-8.39-.22-16.8-.45-24.99,2-4.33,1.29-8.68,3.13-12.78,4.95-2.02.9-4.38,1.78-6.72,2.75-10.45,3.11-19,9.19-27.76,15.98-10.44,8.1-19.76,17.56-28.2,27.74-4.11,4.97-8.36,9.78-12.98,14.29-4.12,4.03-8.48,7.4-11.86,12.19-7.12,10.1-10.21,21.47-14.57,32.89-4.55,11.89-11.97,22.39-16.53,34.2-4.04,10.44-6.31,24.24-4.82,35.39.91,6.72,1.78,13.11,1.82,19.93.04,5.87-.06,10.81,2.55,16.2,2.49,5.15,6.23,10.11,9.74,14.6,1.86,2.38,4.1,4.78,6.25,6.91,3.32,3.27,4.85,5.22,6.3,9.45,3.52,10.34,10.67,19.09,20.27,24.53,11.31,6.42,25.91,7.97,38.47,10.3,6.44,1.2,12.57,4.78,16.78,9.78,4.2,5.02,7.16,10.88,12.17,15.17,4.59,3.93,8.95,8.07,13.34,12.24,4.63,4.42,8.51,9.82,13.62,13.7,5.35,4.1,11.13,4.36,17.45,5.64,6.7,1.36,12.81,3.17,19.71,3.18,6.99,0,13.82-1.31,20.73-2.01,6.87-.69,13.79-.88,20.62-1.67,12.88-1.49,25.54-6.99,36.24-14.2,5.33-3.59,9.98-8.8,15.46-11.93,6.09-3.47,12.18-6.87,18.35-10.17,12.63-6.75,22.72-17.12,32.22-27.81,8.96-10.1,17.1-22.29,22.52-34.68,2.87-6.56,4.24-13.4,6.22-20.25,2-6.88,4.26-14.39,5.01-21.52.73-7.07.22-15.02-.26-22.14"/>
    <path class="cls-9" d="m349.87,266.73c-.83,7.52-2.76,14.88-5.2,22.03-1.35,3.93-4.45,7.27-7.84,10.37-5.62,3.61-11.38,6.81-17.3,10.12-7.79,4.38-15.18,10.15-22.58,15.19-15.31,10.43-35.02,11.54-51.21,20.19-3.75,2.01-7.39,4.56-11.64,5.17-4.48.65-8.95,1.1-13.43,1.88-4.51.81-8.93,1.93-13.44,1.05-5.19-1.02-8.55-2.83-12.89-5.74-2.57-1.72-5.68-3.39-8.44-4.7-3.4-1.62-6-1.85-8.8-5.01-2.43-2.73-4.71-5.43-7.33-7.99-3.34-3.26-5.68-7.25-8.87-10.61-2.63-2.77-6.14-3.86-8.89-6.44-2.59-2.45-4.69-5.71-7.12-8.36-5.32-5.8-11.4-9.32-19.14-10.3-9.79-1.23-18.74-5.01-28.23-7.62-4.17-1.16-7.38-3.56-11.24-5.38-5.04-2.36-8.93-3.78-12.09-8.55-4.37-6.61-7.71-12.44-9.25-20.38-1.65-8.49-4.14-15.69-7.61-23.67-4.08-9.41.08-18.19,4.21-26.9,3.93-8.25,7.04-16.87,10.83-25.22,3.82-8.41,9.74-15.79,12.67-24.58,3.22-9.68,6.18-19.7,10.27-29.07,2.14-4.88,5.99-9.77,9.22-13.97,3.3-4.31,6.19-8.92,9.8-12.92,6.13-6.78,13.44-12.51,19.97-18.83.39-.38.18-.96-.21-1.17,2.72-1.27,5.62-2.25,8.2-3.24,3.17-1.23,6.45-2.84,9.74-3.67,3.98-.99,7.73-.71,11.74-1.92,3.2-.97,6.54-2.5,9.92-2.51,3.04,0,6.2,1.08,9.27,1.27,8.22.5,15.13,2.64,23.02,4.63,13.17,3.32,27.11,2.26,40.14,5.94,7.61,2.14,15.12,1.62,22.15,5.91,4.78,2.92,11.19,6.96,15.13,10.94,1.62,1.63,2.62,3.8,4.16,5.53,2.39,2.65,5.14,4.82,7.84,7.13,4.9,4.19,9.51,9.52,14.91,13.01,3.97,2.57,8.61,4.61,12.95,6.45,8.04,3.4,11.08,9.35,15.13,16.66,6.46,11.63,8.5,25.56,13.37,37.92,2.3,5.83,3.32,12.12,4.12,18.24.96,7.36-.19,14.67.99,22.07,2.62,16.37-5.28,31.01-7.04,47.02m12.08-56.72c-2.02-6.5-1.26-13.45-2.13-20.15-1.02-7.84-4.03-13.92-6.29-21.36-2.23-7.32-3.71-14.98-7.01-21.94-5.48-11.54-12.49-24.12-23.18-31.45-2.29-1.56-4.71-2.63-7.15-3.9-2.97-1.53-5.23-3.88-7.91-5.85-3.3-2.45-6.77-4.7-10.1-7.13-3.75-2.72-5.9-5.74-8.96-9.01-3.58-3.8-8.6-6.84-12.93-9.68-6.5-4.25-12.54-7.04-20.31-7.98-7.4-.89-14.25-3.16-21.73-3.69-8.56-.62-17.4-.86-25.8-2.87-4.58-1.09-8.88-2.94-13.5-3.92-4.03-.86-7.86-1.08-11.95-1.42-3.84-.33-7.65-1.63-11.52-1.2-3.93.44-7.51,2.29-11.22,3.46-3.28,1.02-6.7,1.1-9.89,2.43-3.86,1.6-7.52,3.72-11.37,5.34-5.08,2.14-11.39,4.32-13.64,9.96-.15.38.06.73.37.91-11.35,8.22-21.68,18.4-30,29.66-5.48,7.41-10.12,15.3-13.82,23.82-3.95,9.09-6.42,18.35-11.09,27.14-4.56,8.56-8.15,17.49-11.72,26.52-3.48,8.81-8.55,18.01-10.13,27.46-1.47,8.7,1.49,14.72,5.53,22.14,4.52,8.36,4.65,17.66,8.49,26.27,2.66,6,6.52,12.98,11.76,17,6.81,5.22,13.4,11.2,21.74,13.58,9.6,2.76,18.22,6.3,28.23,7.33,5.42.56,11.28,2.01,15.29,6.04,3,3.01,5.26,6.74,8.47,9.5,2.89,2.49,6.39,3.81,9,6.65,3.34,3.67,5.92,7.72,9.57,11.18,2.87,2.72,5.61,5.68,8.7,8.15,2.72,2.18,5.74,2.97,8.45,4.84,6.68,4.59,12.17,9.29,20.13,11.24,5.78,1.41,11.28.52,16.87-.37,3.56-.56,7.16-1.12,10.89-1.1,5.07.05,8.26-.54,12.92-2.72,4.72-2.23,9.15-5.02,14.16-6.56,11.06-3.39,21.95-7.93,32.36-13.01,9.32-4.56,17.52-11.03,25.55-17.7,4.74-3.92,10.17-6.87,15.31-10.19,2.62-1.7,4.8-3.54,6.93-5.52,2.57-1.79,5.03-3.66,6.88-5.99,4.36-5.51,7.28-12.48,9.42-19.14,2.14-6.68,3.28-13.66,5.23-20.39,2.3-7.91,5.32-16.09,5.81-24.39.47-7.71-2.46-14.79-4.7-21.97"/>
    <path class="cls-9" d="m330.95,265.42c-3.36,4.8-4.84,10.87-8.28,15.38-4.11,5.38-10.55,9.98-16.09,13.89-6.57,4.61-12.72,10.12-19.63,14.21-6.2,3.67-12.62,7.23-19.11,10.38-7.12,3.47-15.39,2.13-23.05,3.22-4.56.64-9.33,1.1-13.78,2.32-3.42.94-6.63,2.24-10.16,2.83-9.13,1.5-19.7-3.95-26.79-9.76-10.82-8.84-16.02-22.86-28.39-29.67-3.66-2.02-6.87-4.76-10.58-6.65-3.48-1.78-7.26-2.96-10.89-4.37-4.12-1.6-8.18-3.18-12.48-4.21-4.24-1.02-7.59-2.78-11.51-4.48-4.75-2.06-9.61-4.19-14.42-6.13-3.11-1.26-5.81-3.13-8.9-4.36-3-1.2-4.59-3.14-6.76-5.14-7.08-8.62-9.67-21.82-7.94-32.29,1.95-11.79,6.12-21.73,11.84-32.03,5.16-9.28,9.7-18.45,14.09-28.11,2.23-4.89,4.11-9.63,5.48-14.85,1.67-6.35,2.25-13.73,5.08-19.63,4.74-9.87,11.07-19.37,20.06-25.88,4.83-3.49,9.4-6.38,15.25-7.81,6.49-1.6,12.17-3.84,18.93-3.21,5.36.5,10.35-.51,15.65-.51,7.36-.01,14.99,2.07,22.12,3.72,4.63,1.08,9.4,2.64,14.15,2.88,3.94.21,6.97.27,10.48,2.36,1.93,1.16,3.65,2.57,5.74,3.55,5.29,2.51,10.92.63,15.76,4.4,3.98,3.1,8.22,5.03,12.78,7.15,5.58,2.6,10.18,6.71,15.51,9.78,5.45,3.14,10.73,5.26,15.68,9.2.41.33.89.37,1.27.2.22.14.45.3.67.45,3.63,2.51,5.78,5.15,8.09,8.79,4.08,6.44,8.52,10.31,13.84,15.49,2.97,2.91,4.49,6.84,6.01,10.66,1.35,3.36,3.23,5.9,3.95,9.58,1.49,7.77,2.87,16.07,3.1,23.98.13,4.27-.65,8.57-.54,12.91.09,3.35.31,6.74.2,10.1-.12,3.5-1.04,6.96-1.11,10.45-.07,3.87,1.36,7.21,2.24,10.9,1.98,8.35-3.04,13.9-7.53,20.32m12.48-30.33c-.05-3.02,1.05-6.28,1.33-9.28.43-4.75.15-9.57.21-14.33.06-4.68,1.09-9.2.64-13.88-.47-4.83-1.1-9.54-2-14.3-.85-4.45-1.03-9.77-3.15-13.84-1.86-3.55-4.31-7.08-6.41-10.55-4.44-7.35-11.95-11.18-17.17-17.95-2.33-3.04-4.2-6.39-7.31-8.71-2.32-1.73-4.89-2.17-7.4-2.9-1.81-3.59-3.36-5.23-7.32-7.04-7.1-3.26-12.81-7.35-18.88-12.24-4.39-3.54-9.28-6.59-13.45-10.37-3.99-3.61-8.12-5.28-13.52-5.19-2.96.05-5.53.5-8.35-.65-1.93-.78-3.58-1.94-5.61-2.47-2.91-.76-6.05-.83-9.01-.99-4.01-.24-7.77-1.24-11.69-2.13-6.63-1.5-13.21-2.96-19.95-3.82-3.67-.47-7.26-.22-10.85.01-3.18.22-6.37.44-9.63.15-24.89-2.18-44.46,14.17-58.38,33.33-3.49,4.81-6.19,9.68-8.25,15.29-2.5,6.75-3.69,13.89-6.64,20.47-5.1,11.39-8.52,23.49-14.78,34.36-6.76,11.78-9.59,27.74-9.32,41.32.14,6.61,2.79,18.84,8.73,24.86.08.13.15.27.24.38,1.62,2.32,3.17,5.1,5.38,6.91,2.37,1.95,5.33,3.8,7.91,5.48,3.85,2.5,8.07,5.06,12.3,6.82,3.36,1.39,6.83,2.62,10.22,3.93,4.23,1.65,8.63,1.35,13,2.26,9.01,1.91,17.38,6.28,25.08,11.09,3.46,2.17,7.25,3.46,10.22,6.36,2.63,2.58,4.45,5.83,6.65,8.74,4.65,6.12,10.06,12.59,16.11,17.31,3.13,2.44,6.68,4.31,10,6.44,3.2,2.04,6.56,4.32,10.23,5.35,8.48,2.36,18.03-1.94,26.4-3.07,7.84-1.07,15.63-1.42,23.3-3.49,7.92-2.13,14.52-7.64,21.47-11.72,13.02-7.66,26.09-16.09,37.48-26.17,2.37-2.1,5.91-5.2,7.48-7.93,1.28-2.21,1.88-4.82,3.07-7.17,1.33-2.65,1.24-3.93,3.66-6.78,1.34-1.57,3.11-2.64,4.45-4.21,2.18-2.58,4.38-6.37,5.45-9.61,2.39-7.25-1.85-13.01-1.95-20.04"/>
    <path class="cls-9" d="m321.93,214.2c-.63,4.18-1.4,7.81-3.63,11.38-2.65,4.25-5.38,8.16-7.44,12.78-4.17,9.37-7.39,20.31-14.57,27.89-7.12,7.54-16.59,12.17-24.8,18.24-4.18,3.1-7.35,5.6-12.28,7.4-4.1,1.5-7.94,3.86-11.84,5.83-5.11,2.58-8.61,5.38-14.56,5.74-6.04.37-10.94.9-15.63-3.63-.46-.44-.99-.52-1.46-.37-1.98-1.62-3.81-3.41-5.36-4.91-4.62-4.48-10.99-7.14-14.62-12.41-3.4-4.94-6.11-9.16-12.08-11-3.18-.98-6.2-1.27-9.2-2.89-2.68-1.43-5.04-3.37-7.73-4.78-5.6-2.95-11.26-1.99-17.26-3.05-6.67-1.2-14.03-2.38-20.49-4.33-6.2-1.86-13.2-3.42-15.97-10.04-1.33-3.2-1.94-6.65-3.29-9.85-.58-1.35-1.7-2.72-2.53-4.08-1.02-9.85,1.18-19.76,8-27.86,2.6-3.09,4.9-6.55,7.62-9.52,2.57-2.81,5.24-5.02,7.26-8.3,4.35-7.08,6.22-13.57,7.25-21.92,1.08-8.57,1.6-17.91,3.61-26.31,2.02-8.44,8.31-15.18,15.66-19.37,6.29-3.59,12.98-6.43,19.82-8.77,4.17-1.43,8.48-3.1,12.82-3.94,7.44-1.44,12.43.34,17.25,6.13,8.09,9.72,22.1,15.94,34.32,18.33,8.03,1.57,15.42,2.89,23.58,3.49,8.47.62,18.66,7.28,24.98,12.96,2.73,2.45,5.51,5.03,8.22,7.54,2.82,2.6,4.23,5.97,6.38,9.02,5.2,7.34,8.16,15.47,10.89,24.14,2.64,8.37,8.39,17.63,7.08,26.46m7.26-1.95c-.12-4.05-1.07-7.84-2.62-11.56-2.36-5.6-4.23-11.12-6.18-16.86-1.73-5.06-3.24-10.54-5.35-15.42-1.47-3.42-3.8-6.18-5.84-9.21-5.1-7.62-10.64-14.02-17.31-20.34-6.23-5.91-14.98-12.87-23.76-13.9-2.5-.3-5.02-.07-7.53.15-2.34.2-4.69.41-7.03.2-5-.45-10.45-1.54-15.3-2.76-7.99-2.01-17.24-5.51-23.49-10.77-6.04-5.08-9.87-11.14-18.56-11.32-8.93-.18-18.78,3.39-26.78,7.19-7.97,3.78-16.01,6.52-23,12.25-5.77,4.71-11.05,10.93-13.52,18.06-4,11.56-3.49,23.99-5.85,35.85-2.12,10.68-11.93,19.32-17.88,28.07-11.51,16.97-7.14,39.45,4.37,55.22.67.91,1.92.64,2.36-.09,1.22.73,2.52,1.37,3.87,1.92,6.78,2.69,13.51,3.86,20.66,5.51,6.58,1.5,14.42,2.29,20.52,5.38,6.13,3.1,9.82,7.79,16.85,9.25,4.85,1.01,7.67,1.72,11.24,5.45,2.21,2.32,4.07,4.61,6.84,6.25,3.65,2.17,7.08,3.53,10.31,6.52,1.81,1.68,3.13,2.91,5.14,4.2,1.54.98,3.18,2.1,4.91,2.96.94,1.65,2.05,2.94,4.24,3.67,4.06,1.35,9.14.64,13.34.62,8.69-.06,16.48-5.97,24.14-9.54,4.11-1.92,8.32-2.52,12.14-5.15,4.74-3.27,9.33-6.23,14.33-9.08,4.17-2.39,7.77-5.58,11.73-8.26,4.07-2.75,7.51-5.91,10.48-9.86,6.78-9.08,10.25-20.1,15.49-30.06,2-3.8,4.88-7.35,5.96-11.57,1.03-4.03,1.22-8.83,1.1-12.95"/>
    <path class="cls-9" d="m292.98,217.24c-3.29,6.62-6.2,15.12-11.01,20.75-2.26,2.65-5.13,4.82-7.15,7.68-1.86,2.64-3.32,5.47-5.34,8.04-5.48,6.93-12.25,16.42-20.32,20.44-2.9,1.44-6.25,3.01-9.28,4.13-4.69,1.74-10.99.28-14.75-2.97-2.13-1.84-3.8-4.14-6.09-5.81-4.08-3-7.33-4.1-10.21-8.68-3.55-5.64-9.32-12.25-15.81-14.55-3.79-1.34-7.93-1.21-11.89-1.18-4.24.02-7.68-.83-11.83-1.5-4.77-.78-9.64-1.16-14.43-1.87-5.55-.82-9.2-2.75-13.79-5.72-2.5-1.62-4.72-3.77-6.05-6.41-1.22-6.38-.38-13.75,1.84-19.28,3.03-7.58,9.66-14.3,14.99-20.26,5.1-5.69,9.06-10.82,10.69-18.48,1.54-7.21-.14-14.59,1.84-21.64,1.57-5.6,4.71-8.34,9.45-11.27,3.28-2.05,9.01-6.83,12.89-7.14,4.18-.33,6.87,2.68,10.34,4.21,2.05.91,4.04,1.18,5.99,2.43,2.6,1.65,4.52,4.2,6.84,6.19,5.61,4.83,12.15,5.64,18.67,8.65,3.32,1.55,6.36,3.6,9.92,4.59,3.71,1.03,7.51.94,11.31,1.15,5.19.31,9.58,1.61,14.21,4.01,3.99,2.07,5.47,4.66,8.02,8.13,2.56,3.5,5.92,6.25,8.52,9.71,2.68,3.55,5,7.36,7.4,11.11,5.19,8.12,9.74,16.04,5.03,25.53m9.31-16.79c-2.69-8.18-8.35-16.05-13.43-22.89-3.03-4.06-6.72-7.32-9.89-11.24-3.01-3.74-4.91-7.22-9.32-9.5-3.53-1.81-7.53-3.48-11.39-4.36-3.05-.69-6.07-.67-9.12-.67-1.87.01-3.74.02-5.65-.14-5.33-.44-9.47-3.37-14.39-5.04-5.91-2.01-11.18-2.6-16.11-6.82-2.95-2.53-5.53-5.38-9.12-7.02-1.66-.75-3.46-1.08-5.1-1.85-2.14-.99-3.8-2.78-5.96-3.75-7.66-3.43-17.59,3.77-23.99,7.39-7.99,4.51-12.38,12.17-13.56,21.28-.62,4.81-.73,9.52-1.75,14.3-1.41,6.63-5.28,11.33-9.46,16.46-6.01,7.41-12.42,15.45-13.88,25.15-.31,2-.5,4.08-.58,6.19-.85,6.31-1.18,11.99,2.43,18.09,3.48,5.87,12.16,11.3,18.66,12.55,5.11.98,10.23,1.85,15.36,2.77,4.53.83,8.43,2.38,13.12,2.37,4.25-.01,8.77-.62,12.78,1.14,4.95,2.17,9.4,6.35,12.55,10.6,2.37,3.2,4.25,5.2,7.74,7.1,3.98,2.15,6.51,5.24,9.98,8.03,5.47,4.4,13.78,5.13,20.09,2.64,3.86-1.54,8.05-2.73,11.66-4.87,3.81-2.25,6.68-5.6,9.64-8.82,3.04-3.34,6.28-6.37,9.06-9.95,3.24-4.19,6.04-9.21,9.65-12.98,2.9-3.02,5.64-5.47,7.94-8.99,2.37-3.59,3.99-7.45,6.1-11.18,4.98-8.84,9.33-15.62,5.92-26"/>
    <path class="cls-9" d="m268.27,217.57c-2.43,11.41-10.34,25.56-20.15,31.83-2.08,1.33-4.63,3.34-7.08,3.82-4.18.83-6.22-2.37-8.86-4.66-4.21-3.66-7.85-8.11-12.3-11.5-3.97-3.02-8.67-4.59-13.59-5.14-2.79-.32-5.65-.32-8.45-.11-3.81.28-6.55.06-10.29-.51-2.21-.33-3.99-.12-6.19.2-3.77.57-7.49.01-11.24-.72-4.62-.9-8.55-2.63-9.44-6.76.2-3.79,1.44-7.84,2.42-10.79,1.95-5.97,5.21-11.03,8.7-16.15,2.85-4.17,6.26-7.91,9.02-12.16,2.69-4.14,2.89-8.03,3.05-12.85.15-4.49.78-9.67,2.71-13.77,4.38-9.34,12.05-2.65,17.44,1.43,4.4,3.34,9.82,5.91,13.59,9.96,3.14,3.36,4.97,7.53,9.32,9.53,8.94,4.13,19.56,4.27,28.02,9.37,3.63,2.19,8.03,5.15,10.31,8.83,3.24,5.22,4.27,14.16,3,20.14m4.51-23.24c-2.63-4-7.84-6.19-11.63-8.81-5.8-3.99-10.94-4.85-17.55-6.65-6.57-1.8-15.04-2.39-19.61-7.94-4.7-5.71-9.44-8.77-15.38-13.09-8.19-5.97-19.64-17.66-28.4-5.19-3.53,5.02-4.33,12.59-4.58,18.56-.18,4.31.71,8.16-1.1,12.19-1.57,3.49-3.99,6.57-6.01,9.8-3.78,6.05-6.78,11.4-8.87,17.85-2.45,4.66-4.8,10.43-3.97,15.33.92,5.52,6.42,7.97,11.2,9.32,2.84.81,6.12,1.37,9.05,1.62,1.79.14,3.55-.07,5.32-.3,1.91-.24,3.8-.46,5.74-.25,2.81.33,5.14,1.23,8.02,1.04,4.56-.31,8.9-1.05,13.44.15,8.07,2.13,12.29,8.87,18.24,14.07,4.3,3.74,7.96,8.15,14.09,7.08,12.81-2.24,22.21-13.28,28.49-23.89,3.68-6.22,7.51-13.54,7.99-20.92.39-6.09-1.08-14.81-4.48-19.99"/>
    <path class="cls-9" d="m236.04,228.52c-3.75-.58-7.51-3.4-10.86-5.13-3.81-1.97-7.59-4.21-11.56-5.84-6.86-2.82-12.72-3.16-19.86-1.22-1.02.27-4,1.65-5.08,1.42-1.93-.39-2.7-1.82-2.84-3.42,1.24-3.4,2.57-6.7,3.72-10.1.76-1.49,1.43-3.04,1.76-4.78.05-.3,0-.59-.12-.86.19-.81.38-1.62.52-2.45,1.23-6.75,5.73-21.86,14.6-10.7,2.56,3.22,2.36,7.22,4.97,10.29,2.27,2.66,5.87,4.26,9.13,5.34,8.31,2.77,16.74,3.46,24.58,7.84,11.56,6.45,2.04,21.32-8.97,19.62m19.71-13.05c-1.36-7.67-8.07-13.24-14.53-16.76-3.94-2.17-7.99-2.84-12.37-3.73-2.7-.54-5.4-1.03-7.98-1.99-3.27-1.22-3.98-2.68-5.59-5.56-2.89-5.23-9.07-12.16-15.76-11.09-6.78,1.08-10.05,7.98-11.48,14.02-.94,3.98-1.46,8.02-2.42,11.98-3.46,4.66-6.64,10.23-4.52,15.33,3.53,8.49,8.81,5.34,16,3.85,17.84-3.72,31.53,19.46,48.86,11.26,7.02-3.32,11.21-9.33,9.79-17.3"/>
    <path class="cls-8" d="m150.84,103.62c-5.22,3.65-11.44,5.77-16.47,9.74-4.78,3.79-8.5,9.59-10.87,15.19-3,7.08-2.95,15.18-4.23,22.67-1.18,6.9-3.47,18.04-8.18,23.37-1.28,1.44.73,3.52,2.11,2.13,3.86-3.87,6.01-10.32,7.97-15.39,2.64-6.82,3.28-14.18,4.06-21.39.91-8.54,4.04-16.61,10.41-22.65,5.09-4.82,11.59-6.89,16.23-12.33.58-.7-.19-1.94-1.03-1.35"/>
    <path class="cls-8" d="m198.16,97.37c-4.27-4.61-14.93-5.13-20.62-4.45-6.87.82-14.92,2.56-20.47,7-1.3,1.03.36,3.01,1.72,2.25,10.92-6.09,26.41-5.74,38.04-2.49,1.35.38,2.26-1.31,1.34-2.31"/>
    <path class="cls-8" d="m251.52,109.93c-5.98-2.76-12.75-2.64-19.03-4.66-7.15-2.31-14.29-5.48-21.37-8.11-1.29-.47-2.21,1.69-.95,2.26,7.16,3.14,13.86,7.39,21.15,10.17,5.73,2.2,13.73,5.01,19.84,3.1,1.12-.34,1.6-2.19.36-2.76"/>
    <path class="cls-8" d="m179.5,114.35c-2.04,1.48-5.22.9-7.58,1.49-2.92.73-6.03,2.17-8.56,3.79-4.51,2.89-9.63,7.27-12.37,11.93-3.17,5.39-2.72,11.54-3.15,17.56-.21,3.16-.44,5.9-.22,9.08.24,3.65-1.02,6.24-1.79,9.64-.11.44.51.6.67.18.75-2.06,2.45-3.71,3.16-5.81.89-2.64.31-5.06.45-7.78.17-3.04,1.07-6.39,1.7-9.35.7-3.27.75-6.84,2.18-9.87,2.72-5.74,9.29-10.86,14.82-13.64,3.66-1.84,9.25-2.23,12.31-5.08,1.1-1.02-.38-3.04-1.63-2.13"/>
    <path class="cls-8" d="m238.66,138.93c-2.42-2.97-7.72-3.36-11.26-4.36-7.17-2.01-13.21-5.39-17.07-11.95-2.2-3.74-3.62-6.35-8.13-7.38-3.11-.72-6.44-.26-9.05,1.75-1.27.97-.15,3.13,1.28,2.21,6.8-4.31,10.32,3.07,13.2,7.76,1.86,3.03,4.61,5.43,7.55,7.33,3.32,2.13,7.19,3.75,10.99,4.77,3.8,1.01,7.97.46,11.59,1.42.95.24,1.46-.88.9-1.56"/>
    <path class="cls-8" d="m269.89,138.08c-3.98-1.54-8.54-1.41-12.74-1.14-3.61.22-7.48,1.23-10.95-.15-2.12-.85-3.49,2.59-1.54,3.67,3.15,1.75,6.51,1.75,10,1.75h.67c4.87.01,9.9.67,14.55-1.12,1.46-.56,1.46-2.44,0-3.01"/>
    <path class="cls-8" d="m168.27,72.98c-8.49-.5-15.44,2.23-23.16,5.56-7.55,3.24-15.7,7.2-21.97,12.64-5.45,4.72-10.54,10.18-14.63,16.15-2.04,2.96-3.77,5.64-4.98,9.02-1.27,3.55-1.5,8.19-3.53,11.41-.9,1.42,1.24,2.59,2.19,1.29,1.3-1.79,1.8-3.99,2.58-6.05,1.6-4.18,3.34-7.53,6.01-11.09,4.26-5.67,8.87-10.55,13.6-15.73,5.32-5.84,13.38-9.89,20.41-13.24,7.15-3.42,15.72-7.94,23.6-9.08.52-.07.36-.86-.12-.89"/>
    <path class="cls-8" d="m226.26,78.89c-8.11-2.9-15.24-6.35-24-6.5-8.51-.14-16.18-2.19-24.76-.27-.45.09-.45.82,0,.92,7.4,1.57,16.32,3.43,23.85,3.24,8.35-.2,16.35,3.66,24.76,3.74.67.01.75-.92.15-1.14"/>
    <path class="cls-8" d="m271.18,91.88c-11.06-.77-20.97-11.21-32.32-10.34-.5.04-.66.81-.12.94,10.34,2.57,21.45,11.58,32.44,10.31.57-.07.59-.86,0-.91"/>
    <path class="cls-8" d="m253.97,61.6c-3.9-5.07-14.81-5.51-20.53-6.44-9.48-1.55-18.17-1.5-27.75-.71-1.18.11-1.18,1.78,0,1.87,8.97.7,17.63,1.87,26.46,3.56,6.64,1.27,14.62.89,20.92,3.27.97.37,1.4-.91.9-1.55"/>
  </g>
  <g class="cls-6">
    <path class="cls-8" d="m300.72,52.44c-2.58-4.71-9.8-6.16-14.46-7.97-8.51-3.32-16.73-6.67-25.01-10.54-6.8-3.18-13.22-4.81-20.58-6.06-4.3-.73-10.47-1.84-14.35.65-1.35.86-.14,3,1.26,2.18,4.75-2.82,13.13.4,18.09,1.24,6.91,1.17,12.88,4.24,19.29,7,11.61,5,23.68,8.32,34.77,14.49.63.36,1.34-.36.98-.99"/>
    <path class="cls-8" d="m336.32,81.51c-1.37-1.34-2.39-4.68-3.52-6.35-1.87-2.79-4.1-5.29-6.32-7.8-4.3-4.83-8.9-8.51-14.74-11.27-1.39-.65-2.39,1.14-1.18,2.04,5.54,4.16,9.86,9.21,14.67,14.16,2.29,2.34,4.8,4.46,6.88,7.02,1.29,1.59,1.61,2.82,3.52,3.42.69.22,1.21-.72.7-1.22"/>
    <path class="cls-8" d="m312.16,93.45c-3.87-8.54-13.49-11.41-20.36-16.79-1.48-1.16-3.56.76-2.12,2.13,3.1,2.94,6.56,5.51,9.85,8.2,3.37,2.78,7.09,6.17,11.03,8.07,1.09.52,2.1-.53,1.6-1.62"/>
    <path class="cls-8" d="m296.24,168.06c-2.63-4.18-3.45-8.96-6.64-13-1.7-2.17-3.97-3.86-5.96-5.74-1.82-1.73-4.16-2.52-6.11-4.12-1.73-1.42-4.17.88-2.5,2.52,4.19,4.16,9.33,7.4,12.38,12.69,1.6,2.76,3.23,10.27,7.58,9.85,1.02-.11,1.88-1.18,1.24-2.2"/>
    <path class="cls-8" d="m268.89,183.25c-5.15-7.31-11.3-12.19-19.57-15.62-4.57-1.88-9.2-4.1-13.91-5.64-5.26-1.73-11.73-1.36-16.02-5.32-1.25-1.16-3.01.62-1.87,1.89,2.15,2.42,4.89,3.8,7.89,4.9,5.14,1.88,10.22,3.28,15.29,5.48,4.1,1.78,8.34,3.02,12.51,4.56,6.41,2.34,10.34,5.51,15.21,10.1.24.22.67-.07.47-.37"/>
    <path class="cls-8" d="m277.34,186.63c-1.47-1.21-3.58.83-2.12,2.13,4.49,4.01,3.6,10.23,5.38,15.49.26.78,1.33.79,1.59,0,1.91-5.8-.08-13.71-4.84-17.62"/>
    <path class="cls-8" d="m228.8,211.22c-9.82-3.32-21.07-5.27-28.96-12.46-1.28-1.16-3.15.69-1.91,1.92,8.44,8.31,19.39,10.66,30.72,11.63.64.06.7-.9.14-1.09"/>
    <path class="cls-8" d="m244.97,267.04c-6.1-1.05-12.59-.71-18.38-3.15-6.68-2.81-10.3-8.36-14.6-13.83-.36-.46-1.04.13-.78.6,3.61,6.59,6.51,13.09,13.84,16.33,6.23,2.75,13.44,2.52,19.91,1.16.53-.11.56-1.02,0-1.11"/>
    <path class="cls-8" d="m279.48,227.73c-3.84,2.84-5.83,6.25-8.17,10.34-2.87,5.01-6.91,9.38-11.08,13.32-.85.81.28,2.37,1.27,1.66,4.01-2.88,7.67-6.32,10.62-10.32,3.3-4.48,4.95-9.8,7.91-14.43.21-.33-.21-.79-.54-.56"/>
    <path class="cls-8" d="m309.48,193.35c-2.58-5.04-3.82-9.97-5.72-15.26-1.54-4.3-3.39-5.9-5.85-9.51-.25-.38-.97-.15-.78.32,2.95,7.26,2.89,15.34,6.18,22.47,1.89,4.07,4.44,7.7,4.82,12.31.27,3.37.25,6.55.84,9.91.08.47.89.5.96,0,.5-3.43,2.11-6.62,2.45-10,.39-3.71-1.28-7.07-2.9-10.24"/>
    <path class="cls-8" d="m304.86,232.93c-.22-.36-.82-.43-1.03,0-.63,1.27-2.27,1.86-3.18,2.95-1.65,1.98-3.02,3.67-4.96,5.45-3.92,3.6-7.99,7.87-10.47,12.64-.69,1.3.7,2.76,2.01,2.02,5.6-3.11,10.54-9.45,14.37-14.54,1.21-1.6,2.3-3.75,3.13-5.48.6-1.28.96-1.76.13-3.04"/>
    <path class="cls-8" d="m107.52,183.89c-1.52,1.28-3.29,2.07-4.57,3.65-1.67,2.06-2.71,5.03-3.88,7.41-2.68,5.41-5.27,10.96-7.09,16.74-2.34,7.39-3.02,17.57,2.64,23.77.47.52,1.46-.02,1.21-.71-.85-2.4-.77-7.06-.92-9.66-.3-4.94.91-9.61,2.49-14.23,2.9-8.47,6.25-18.08,12.56-24.52,1.59-1.61-.76-3.87-2.43-2.45"/>
    <path class="cls-8" d="m89.06,161.35c-5.41,8.51-10.61,17.32-14.54,26.72-2.06,4.95-4.9,10.34-5.45,15.75-.47,4.65.72,9.6,1.6,14.12.12.65,1.17.65,1.29,0,.79-4.07,1.22-7.8,1.34-11.9.17-5.4,2.83-10.89,4.84-15.83,3.81-9.4,8.3-18.78,12.86-27.72.65-1.3-1.16-2.38-1.94-1.15"/>
    <path class="cls-8" d="m69.64,139.61c-3.49,3.43-4.56,9.46-6.7,13.84-2.27,4.62-2.92,9.41-4.75,14.15-.4,1.03.98,2.06,1.86,1.44,3.53-2.45,3.9-6.96,5.33-10.75,1.03-2.72,2.29-5.36,3.15-8.15.86-2.77.86-6.61,2.77-8.87.96-1.15-.56-2.75-1.66-1.67"/>
    <path class="cls-8" d="m63.68,275.68c-2.27-4.75-5.19-8.86-7.74-13.4-3-5.34-4.77-12.08-6.26-18.01-.15-.59-1.07-.34-.92.26,2.55,10.64,4.08,25.49,13.57,32.52.88.65,1.75-.57,1.36-1.37"/>
    <path class="cls-8" d="m131.89,310.73c-7.7-1.04-15.42-2.72-22.99-4.46-6.96-1.59-17.33-2.51-21.83-8.86-.37-.52-1.21-.05-.86.51,8.93,14.48,30.31,15.92,45.5,14.2.71-.08,1.04-1.27.19-1.39"/>
    <path class="cls-8" d="m100.52,330.13c-5.49-1.1-11.12-2.23-16.56-3.52-7.21-1.72-13.13-6.01-18.51-10.99-1.26-1.16-3.05.64-1.87,1.88,4.96,5.21,10.36,10.04,17.3,12.29,5.48,1.78,13.94,3.95,19.64,2.42.98-.26,1.07-1.87,0-2.08"/>
  </g>
  <g class="cls-3">
    <path class="cls-8" d="m151.39,295.49c-3.08-1.12-6.55-4.55-9.6-6.12-3.62-1.86-7.28-3.02-11.13-4.33-3.77-1.29-6.75-1.81-10.62-2.11-4.25-.33-8.74-.09-12.49-2.45-1.11-.7-2.05,1.01-1.01,1.74,5.8,4.08,13.81,3.17,20.36,4.98,4.64,1.29,9.22,3.22,13.81,4.74,3.6,1.2,6.89,3.63,10.43,4.48.59.14.82-.71.25-.92"/>
    <path class="cls-8" d="m190.82,328.69c-4.91-2.34-10.42-5.68-14.15-9.57-4.03-4.19-7.58-8.87-11.76-12.92-1.22-1.17-2.78.54-1.8,1.81,4.4,5.67,6.99,12.27,12.74,16.95,3.39,2.77,10.16,5.28,14.53,5.36.83.01,1.24-1.27.44-1.65"/>
    <path class="cls-8" d="m219.56,363.71c-3.23-.54-6.44-.18-9.66.19-2.15.25-4.33.5-6.51.46-5.8-.08-12.01-1.31-17.44-3.45-4.55-1.79-10.66-6.17-14.25-9.63-4.69-4.5-9.58-9.79-12.44-15.66-.67-1.39-3.1-.39-2.51,1.07,4.52,11.12,13.69,21.32,23.94,27.4,4.65,2.75,10.4,4.19,15.69,4.91,8.23,1.12,14.94-2.33,22.93-3.32.99-.12,1.48-1.78.26-1.98"/>
    <path class="cls-8" d="m299.65,337.29c-8.86,5.74-18.86,9.97-28.08,15.11-8.95,4.98-18.52,7.99-27.67,12.42-1.85.89-.53,4.11,1.4,3.35,4.3-1.66,8.89-2.32,13.28-3.75,5.46-1.76,10.7-4.51,15.62-7.47,9.41-5.66,18.38-10.7,26.51-18.27.72-.67-.21-1.93-1.05-1.39"/>
    <path class="cls-8" d="m320.05,265.61c-.76,1.73-4.42,3.41-5.88,4.74-3.11,2.83-6.14,5.74-9.34,8.49-6.1,5.24-12.41,10.49-18.81,15.36-6.13,4.65-13.58,7.33-20.03,11.53-5.23,3.41-10.99,7.09-17.07,8.57-.54.13-.54.98,0,1.11,5.85,1.4,11.32-1.37,16.28-4.29,7.57-4.46,16.32-7.9,23.29-13.25,6.52-5,13.36-10.37,19.25-16.11,2.94-2.88,5.53-5.93,7.98-9.22,1.63-2.19,4.7-3.81,5.3-6.52.12-.54-.71-.98-.96-.4"/>
    <path class="cls-8" d="m278.39,269.41c-3.5,2.45-6.91,4.69-9.85,7.8-3.4,3.6-8.44,6.86-12.91,8.87-.57.25-.08,1.07.47.83,4.52-1.97,10.13-3.14,14.04-6.3,3.47-2.82,6.77-6.39,9.44-9.99.52-.71-.5-1.69-1.2-1.21"/>
    <path class="cls-8" d="m372.98,213.3c-1.24-3.02-.47-8.76-.9-12.22-.47-3.86-.69-7.66-1.27-11.51-.88-5.91-.82-16.18-5.49-20.53-.69-.64-1.82.18-1.33,1.04,1.74,3,2.14,8,2.68,11.44.75,4.94,1.18,10.27,1.35,15.27.17,4.96.21,13.51,3.92,17.12.41.39,1.29,0,1.04-.62"/>
    <path class="cls-8" d="m394.16,195.03c.5-10.76-1.1-20.03-2.88-30.57-1.49-8.89-2.97-18.88-7.44-26.83-.3-.54-1.09-.07-.82.47,4.25,8.56,4.65,20.02,5.85,29.37,1.34,10.42,2.2,20.45,2.72,30.95.46,9.4,1.14,19.26.11,28.64-.46,4.2-1.43,7.87-1.37,12.15.02,2.04,1.55,14.4-.25,14.92-.62.18-.53,1.27.15,1.18.24-.04.47-.06.71-.09.3-.04.56-.18.64-.49,1.21-4.51,1.78-8.79,1.69-13.45-.08-4.82.72-9.44.84-14.22.28-10.67-.45-21.32.04-32.04"/>
    <path class="cls-8" d="m389.04,274.97c-.54.59-1.09,1.2-1.63,1.79-.34.38.19.92.57.57.59-.54,1.18-1.09,1.78-1.65.47-.44-.27-1.18-.71-.71"/>
    <path class="cls-8" d="m127.18,246.39c-4.75-5.41-6.46-9.06-6.67-16.52-.18-6.36.36-16.17,3.75-21.79.85-1.39-1.27-2.62-2.14-1.27-2.39,3.68-3.18,9.4-3.98,13.67-.83,4.42-1.14,9.16-.64,13.62.72,6.62,2.49,11.69,8.87,13.66.83.26,1.33-.79.81-1.39"/>
    <path class="cls-8" d="m168.95,180.82c-.06-.73-1.1-.96-1.33-.18-2.81,9.78-11.2,14.61-16.59,22.44-4.35,6.33-7.77,15.58-7.9,23.28-.02,1.73,2.55,1.7,2.64,0,.34-5.93,2.84-11.07,5.32-16.35,2.14-4.58,5.27-7.15,8.57-10.71,4.74-5.11,9.93-11.11,9.28-18.47"/>
    <path class="cls-8" d="m175.42,148.17c-2.58,1.74-4.17,4.25-5.29,7.14-.96,2.49-.39,6.94-2.2,8.84-1.52,1.59.82,3.94,2.39,2.42,2-1.93,2.01-4.55,2.5-7.13.65-3.45,2.47-6.75,3.97-9.9.4-.83-.46-1.98-1.36-1.37"/>
    <path class="cls-8" d="m361.88,162.63c-1.62-4.18-.9-9.08-1.98-13.46-.96-3.93-2.55-8.62-4.65-11.97-1.46-2.32-3.53-4.19-5.23-6.33-2.76-3.45-4.45-7.83-7.49-10.94-.98-1.01-2.39.47-1.52,1.53,2.68,3.2,4.77,8.18,7.19,11.71,1.88,2.77,4.04,5.59,5.36,8.62,2.81,6.41,2.21,16.43,7.36,21.42.38.37,1.18,0,.96-.57"/>
    <path class="cls-8" d="m386.27,280.09c-1.14,3.9-3.98,7.06-5.81,10.64-1.49,2.92-3.2,5.85-5,8.61-1.97,3-3.8,5.32-5.26,8.68-1.88,4.33-3.97,8.77-6.78,12.57-.38.52.4,1.01.83.64,3.78-3.18,5.58-5.67,7.58-10.19,1.82-4.08,3.9-7.35,6.49-10.96,2.21-3.1,3.82-6.1,5.6-9.42,1.8-3.35,4.16-6.04,5.19-9.77.52-1.85-2.3-2.63-2.83-.79"/>
    <path class="cls-8" d="m337.29,339.54c-3.59,3.41-6.06,7.42-9.28,11.12-3.37,3.88-7.64,6.77-11.63,9.93-4.32,3.42-8.34,7.4-13.06,10.23-4.62,2.77-9.41,3.13-14.43,4.48-.53.14-.57.99,0,1.11,8.89,1.97,18.93-5.83,26.15-10.27,4.53-2.79,8.95-6.05,12.86-9.7,4.59-4.31,7.59-9.87,11.54-14.74,1.22-1.5-.7-3.55-2.15-2.17"/>
    <path class="cls-8" d="m342.38,307.56c-3.67,2.59-6.22,6.83-9.6,9.84-2.02,1.81-3.91,3.75-5.65,5.86-1.37,1.66-2.91,1.94-4.4,3.28-.4.36.12,1.05.57.75,1.33-.9,2.69-.77,3.99-1.79,2.14-1.7,4.04-3.79,6.13-5.56,2.01-1.69,4.31-3.11,5.88-5.28,1.46-1.99,2.04-4.43,3.65-6.35.33-.38-.09-1.08-.57-.75"/>
    <path class="cls-8" d="m335.27,284.7c-2.78,1.97-4.66,5.33-7.07,7.77-3.14,3.17-5.94,6.64-9.25,9.64-2.13,1.93.96,4.95,3.1,3.14,3.39-2.87,6.46-6.14,9.54-9.34,1.21-1.27,2.39-2.58,3.23-4.12.97-1.78,1.09-3.75,1.91-5.6.38-.88-.49-2.17-1.47-1.48"/>
    <path class="cls-7" d="m131.81,255.47h-.11c-.99.12-1.67.38-2.3.75.98.28,2,.57,3.02.82.43-.54.13-1.56-.62-1.56m-8.44,4.75c-1.67.92-3.37,1.76-5.07,2.75-1.46.84-2.73,1.91-3.99,3,1.24.53,2.49,1.08,3.72,1.61,2.45-1.55,5.19-2.52,7.55-4.24.72-.52,1.39-1.17,2.04-1.86-1.42-.38-2.84-.79-4.25-1.26m-17.25,11.19c-2.26.94-4.59,1.66-6.82,2.76-4.18,2.08-8.65,4.17-12.95,6.45,2.37,1.11,4.49,2.45,6.74,3.58,2.7-1.52,5.39-3.04,7.97-4.72,3.02-1.97,5.92-4.08,8.82-6.19-1.26-.57-2.51-1.2-3.75-1.87m-26.39,13.06c-.73.49-1.47.97-2.17,1.47-4.06,2.85-8.36,5.3-12.21,8.39.72,1.53,1.59,2.95,2.73,4.29,4.25-2.3,8.67-4.27,12.7-7.08,1.48-1.02,3-1.99,4.53-2.91-1.91-1.3-3.77-2.71-5.6-4.16m-18.27,13.44s-.04.04-.06.06c-1.23,1.33-.13,3.48,1.4,3.48.24,0,.49-.05.72-.15-.73-1.1-1.42-2.23-2.06-3.39"/>
    <path class="cls-10" d="m65.35,294.33c-1.36,1.1-2.68,2.27-3.9,3.58.64,1.16,1.33,2.29,2.07,3.39.09-.05.19-.11.3-.17,1.39-.9,2.82-1.73,4.27-2.51-1.16-1.34-2.01-2.77-2.75-4.29"/>
    <path class="cls-10" d="m86.35,280.62c-2.27,1.21-4.5,2.49-6.62,3.85,1.84,1.43,3.68,2.84,5.6,4.16,2.55-1.54,5.15-2.97,7.75-4.43-2.25-1.14-4.37-2.46-6.74-3.58"/>
    <path class="cls-10" d="m114.31,265.96c-1.43,1.24-2.83,2.51-4.44,3.54-1.21.78-2.47,1.37-3.75,1.91,1.24.67,2.5,1.3,3.75,1.87,2.6-1.89,5.2-3.78,7.89-5.53.09-.06.18-.12.27-.18-1.23-.53-2.47-1.08-3.72-1.61"/>
    <path class="cls-10" d="m129.41,256.21c-.64.38-1.23.88-2.02,1.48-1.3.97-2.65,1.78-4.01,2.53,1.42.46,2.83.88,4.26,1.26,1.46-1.54,2.84-3.28,4.55-4.23.11-.06.19-.13.26-.21-1.03-.26-2.04-.53-3.03-.83"/>
    <path class="cls-7" d="m110.45,254.59c-.15,0-.32.05-.49.15-2.89,1.85-5.77,3.67-8.68,5.43,1.14.6,2.27,1.22,3.46,1.76,2.27-1.65,4.42-3.5,6.37-5.69.57-.64.06-1.66-.66-1.66m-15.98,9.57c-1.61.9-3.23,1.78-4.88,2.63-4.57,2.37-9.35,4.59-13.7,7.42.75.82,1.53,1.52,2.36,2.12,6.17-3.9,13.04-6.61,19.45-10.05-1.05-.69-2.15-1.4-3.23-2.12m-23,13.33c-.4.34-.81.7-1.2,1.07-1.11,1.04-.08,2.53,1.11,2.53.33,0,.69-.12.99-.4.41-.36.83-.71,1.24-1.05-.75-.65-1.47-1.37-2.15-2.14"/>
    <path class="cls-10" d="m75.9,274.21c-1.54,1.01-3.03,2.08-4.43,3.28.69.77,1.41,1.49,2.15,2.15,1.48-1.21,3.03-2.3,4.63-3.3-.83-.62-1.61-1.31-2.36-2.13"/>
    <path class="cls-10" d="m101.28,260.18c-2.25,1.36-4.51,2.69-6.82,3.98,1.08.72,2.18,1.43,3.24,2.12,2.43-1.3,4.8-2.71,7.03-4.33-1.18-.54-2.32-1.16-3.46-1.76"/>
    <path class="cls-7" d="m62.77,172.11c-1.48,0-2.31,2.25-.84,3.39.52.4,1.11.72,1.74.97.49-1.15.97-2.3,1.48-3.43-.53-.17-1.02-.37-1.44-.63-.33-.21-.65-.3-.94-.3m12.62,1.37c-.58,0-1.2.01-1.84.02-.4.79-.78,1.57-1.15,2.38-.28.63-.56,1.26-.84,1.88.36.05.7.09,1.04.17,2.01.36,4.04.79,6.06,1.25.88-1.73,1.8-3.43,2.75-5.14-1.34-.18-2.66-.34-3.99-.49-.6-.06-1.29-.08-2.04-.08m9.65,1.1c-.86,1.85-1.72,3.69-2.56,5.54,2.17.54,4.32,1.12,6.45,1.68.06.01.12.04.17.05.95-1.99,1.84-4,2.68-6.03-.07-.02-.15-.04-.22-.05-2.14-.45-4.32-.84-6.51-1.2m14.53,3.61c-1.07,2.05-2.14,4.11-3.24,6.16,2.27.95,4.49,2.01,6.69,3.11,1.27-1.53,3.02-2.31,4.51-3.58.38-.32.78-.45,1.16-.45,1.36,0,2.51,1.65,1.28,2.9-.99,1.02-1.92,2.11-2.78,3.27,2.75,1.41,5.49,2.82,8.32,4.08,1.5-1.85,3.01-3.71,4.43-5.61-.43-.21-.86-.41-1.29-.63-6.41-3.08-12.5-6.71-19.07-9.26m26.72,12.93c-1.14,1.17-2.32,2.32-3.48,3.59-.44.49-.88.98-1.3,1.48,4.12,1.7,8.18,3.42,12.3,4.97.94-1.79,2-3.52,3.14-5.21-3.59-1.53-7.13-3.16-10.66-4.83m17.81,7.72c-1.24,1.52-2.44,3.08-3.53,4.69,1.26.4,2.52.78,3.8,1.14,1.61.44,3.21.91,4.8,1.41.6-1.05,1.23-2.06,1.87-3,.28-.41.58-.83.88-1.22-2.02-.84-4.06-1.65-6.12-2.39-.57-.2-1.14-.41-1.69-.63"/>
    <path class="cls-10" d="m65.14,173.03c-.5,1.14-.99,2.29-1.48,3.43,2.38.96,5.35.98,7.9,1.3.28-.63.57-1.26.85-1.88.36-.81.75-1.59,1.14-2.37-.2,0-.41.01-.63.01-.86.02-1.75.05-2.63.05-1.86,0-3.69-.11-5.15-.54"/>
    <path class="cls-10" d="m91.77,175.83c-.84,2.04-1.73,4.05-2.68,6.03,2.5.67,4.89,1.53,7.22,2.5,1.1-2.05,2.18-4.1,3.23-6.16-2.51-.98-5.09-1.8-7.78-2.37"/>
    <path class="cls-10" d="m119.93,188.08c-1.42,1.91-2.92,3.78-4.43,5.61.77.34,1.54.67,2.32.98,1.23.51,2.46,1.02,3.69,1.53.41-.51.85-1.01,1.29-1.48,1.16-1.27,2.34-2.42,3.48-3.6-2.13-1.01-4.24-2.02-6.36-3.04"/>
    <path class="cls-10" d="m136.94,195.96c-1.14,1.69-2.2,3.42-3.14,5.21,2.23.84,4.48,1.63,6.76,2.37,1.09-1.61,2.29-3.17,3.53-4.69-2.4-.91-4.78-1.87-7.15-2.89"/>
    <path class="cls-11" d="m108.68,183.44c-.39,0-.79.13-1.16.45-1.49,1.27-3.24,2.05-4.51,3.58,1.4.71,2.78,1.42,4.17,2.14.85-1.16,1.78-2.25,2.77-3.27,1.23-1.25.09-2.9-1.27-2.9"/>
    <path class="cls-11" d="m81.41,174.06c-.95,1.69-1.87,3.41-2.75,5.14,1.27.3,2.55.62,3.81.94.84-1.86,1.69-3.71,2.56-5.54-1.21-.19-2.42-.37-3.62-.53"/>
    <path class="cls-7" d="m155.69,203.45c-1.08,1.17-2.1,2.37-3.01,3.74,2.5.79,4.98,1.61,7.48,2.37.44-1.23.9-2.42,1.4-3.58-1.95-.84-3.92-1.69-5.87-2.53m9.73,4.14c-.5,1.01-.96,2.04-1.39,3.09,4.4,1.22,8.89,2.2,13.59,2.64h.07c.73,0,.84-1.2.12-1.39-4.26-1.17-8.36-2.7-12.4-4.35"/>
    <path class="cls-10" d="m161.56,205.98c-.5,1.16-.97,2.36-1.4,3.58,1.28.39,2.57.77,3.87,1.12.41-1.05.89-2.08,1.39-3.09-1.29-.52-2.58-1.07-3.86-1.61"/>
    <path class="cls-11" d="m151.91,201.86c-.3.4-.59.81-.88,1.22-.65.94-1.28,1.94-1.87,3,1.17.37,2.34.73,3.52,1.11.91-1.37,1.92-2.57,3.01-3.74-1.26-.53-2.51-1.07-3.78-1.59"/>
    <path class="cls-7" d="m87.47,153.66c-1.76,0-1.75,2.7,0,2.77,3.53.14,7.13,1.65,10.53,3.56.38-.96.77-1.92,1.17-2.88-3.68-1.87-7.51-3.43-11.7-3.46Zm20.1,7.96c-.54,1.18-1.09,2.37-1.63,3.54,2.6,1.78,5.3,3.37,8.04,4.95.59-1.22,1.14-2.53,1.62-3.9-2.65-1.56-5.33-3.11-8.03-4.59m11,6.33c-.56,1.29-1.14,2.56-1.8,3.77,1.36.78,2.71,1.56,4.05,2.38,1.75,1.05,3.54,2.06,5.34,3,.37-1.07.67-2.17.9-3.28.06-.3.12-.59.18-.9-2.47-1.34-4.91-2.73-7.34-4.17-.45-.27-.89-.53-1.33-.79m16.09,8.76c-.43,1.27-.91,2.51-1.47,3.75,1.54.67,3.09,1.33,4.65,1.95,2.47.98,5.19,1.56,7.86,2.17.75-.94,1.48-1.87,2.18-2.82-2.76-.95-5.64-1.67-8.09-2.72-1.74-.75-3.45-1.53-5.14-2.33"/>
    <path class="cls-10" d="m99.17,157.12c-.4.96-.79,1.92-1.17,2.88,2.68,1.53,5.23,3.3,7.52,4.88.14.09.28.19.43.28.54-1.17,1.09-2.36,1.63-3.54-1.15-.64-2.31-1.27-3.47-1.88-1.63-.86-3.27-1.76-4.94-2.62"/>
    <path class="cls-10" d="m127.24,172.91c-.06.3-.12.6-.18.9-.21,1.11-.52,2.2-.9,3.28,2.31,1.21,4.65,2.32,7.04,3.37.54-1.24,1.03-2.49,1.46-3.75-2.51-1.21-4.97-2.47-7.42-3.8"/>
    <path class="cls-10" d="m147.89,181.77c-.7.95-1.43,1.87-2.18,2.82,2.63.59,5.23,1.21,7.59,2.29.14.06.28.08.43.08.85,0,1.62-.99.81-1.7-1.84-1.6-4.19-2.63-6.64-3.48"/>
    <path class="cls-11" d="m115.61,166.21c-.49,1.36-1.03,2.68-1.63,3.9.94.54,1.87,1.08,2.81,1.61.65-1.21,1.24-2.47,1.79-3.75-.98-.59-1.97-1.17-2.96-1.75"/>
    <path class="cls-7" d="m122.5,118.74c-.24.4-.47.82-.71,1.23,1.34,1.29,2.66,2.59,3.99,3.91.3-.54.62-1.08.94-1.6-1.41-1.18-2.81-2.37-4.21-3.54m7.27,6.14c-.37.65-.7,1.3-1.02,1.98,2.1,2.12,4.18,4.26,6.24,6.41.45-.83.94-1.65,1.46-2.45-2.18-2.02-4.42-3.99-6.68-5.93m11.84,10.94c-.27.78-.5,1.56-.7,2.37-.08.34-.15.67-.24,1.02,2.43,2.55,4.85,5.08,7.29,7.61.06-1.24.11-2.47.18-3.71-2.06-2.53-4.25-4.96-6.54-7.29m9.71,11.46c-.18.81-.37,1.61-.53,2.43.25.26.5.51.75.77.15.15.36.22.54.22.58,0,1.15-.64.75-1.24-.49-.73-.99-1.46-1.5-2.18"/>
    <path class="cls-10" d="m119.82,116.67c-.49,0-.9.58-.45,1.01.82.76,1.62,1.53,2.43,2.31.22-.41.46-.83.71-1.24-.77-.64-1.53-1.28-2.29-1.92-.13-.11-.27-.15-.4-.15"/>
    <path class="cls-10" d="m136.45,130.83c-.52.79-1.01,1.61-1.46,2.45,1.91,1.98,3.79,3.95,5.68,5.94.08-.34.15-.69.24-1.02.2-.81.43-1.6.7-2.37-1.68-1.72-3.4-3.37-5.16-5.01"/>
    <path class="cls-11" d="m126.71,122.29c-.32.52-.64,1.05-.94,1.6.99.98,1.99,1.98,2.97,2.98.32-.67.66-1.33,1.02-1.98-1.02-.88-2.04-1.74-3.05-2.6"/>
    <path class="cls-11" d="m148.14,143.12c-.07,1.23-.11,2.46-.17,3.71.94.97,1.87,1.93,2.81,2.89.18-.82.36-1.63.53-2.43-1.02-1.43-2.07-2.82-3.17-4.17"/>
    <path class="cls-7" d="m244.81,41.23c-.2,0-.41.13-.41.41-.01.99-.02,1.99-.04,2.98.05.01.11.04.15.05.26.07.52.14.78.2-.02-1.08-.05-2.15-.06-3.23,0-.28-.21-.41-.43-.41m-.6,12.61c-.02.98-.06,1.95-.09,2.92.56.12,1.11.25,1.66.39-.05-1.01-.09-2.01-.13-3.02-.49-.08-.96-.19-1.43-.3m-.28,7.39c-.14,2.66-.32,5.33-.56,7.99.94.19,1.88.39,2.83.59-.05-2.78-.14-5.55-.25-8.34-.67-.09-1.35-.18-2.02-.25m-1.2,13.76c-.3,2.19-.63,4.38-.97,6.57,1.33.11,2.64.34,3.94.69.21-2.12.39-4.25.47-6.39h-.01c-1.14-.33-2.29-.62-3.43-.86m-1.24,8.31c-.56,3.4-1.14,6.8-1.65,10.21.27.12.54.25.82.36,1.23.5,2.4.7,3.59.76.34-3.27.78-6.52,1.16-9.79-1.31-.57-2.63-1.09-3.92-1.53m-2.51,16.63c-.26,2.24-.49,4.49-.69,6.71,1.78.33,3.56.62,5.34.95.04-1.84.07-3.69.12-5.58-.91-.21-1.81-.51-2.71-.94-.72-.34-1.4-.73-2.06-1.15m-1.16,11.91c-.31,3.42-.65,6.86-1.14,10.3.53.14,1.07.28,1.59.41,1.55.39,3.16.76,4.8,1.11.26-3.55.39-7.06.46-10.57-1.91-.25-3.84-.71-5.71-1.26m-2.29,17.49c-.41,2.3-.89,4.57-1.5,6.84,1.86.58,3.54,1.4,4.64,2.75.5.63.14,1.6-.64,1.6-.08,0-.17-.01-.26-.04-1.46-.38-3.01-.52-4.57-.63-.41,2.62-.49,5.19-1.04,7.87-.01.02-.01.05-.02.07,1.03.44,2.02.91,3.04,1.36,2.3-2.17,2.79-5.17,4.01-8.09,1.44-3.49,2.56-6.48,3.1-10.21-.49-.11-.99-.2-1.49-.3-1.73-.34-3.49-.76-5.27-1.24"/>
    <path class="cls-10" d="m244.36,44.63c-.04,3.08-.08,6.14-.17,9.21.49.11.96.2,1.43.3-.13-3.08-.26-6.17-.33-9.26-.26-.06-.52-.13-.78-.2-.06-.02-.11-.04-.15-.05"/>
    <path class="cls-10" d="m243.36,69.22c-.01.13-.02.27-.04.4-.17,1.8-.37,3.58-.6,5.36,1.15.25,2.3.53,3.45.86.04-.86.06-1.73.06-2.59,0-1.15-.01-2.3-.04-3.45-.94-.2-1.88-.4-2.83-.59"/>
    <path class="cls-10" d="m239.84,93.5c-.26,1.75-.51,3.5-.72,5.26-.05.39-.09.78-.14,1.17.66.41,1.34.82,2.06,1.15.9.43,1.8.72,2.71.95,0-.12,0-.24.01-.36.06-2.37.25-4.71.49-7.06-1.18-.06-2.36-.26-3.59-.76-.27-.11-.54-.22-.82-.36"/>
    <path class="cls-10" d="m236.67,122.14c-.07.5-.14.99-.21,1.49-.3,1.92-.59,3.81-.94,5.69,1.78.5,3.54.91,5.27,1.24.51.11,1.01.2,1.5.3.01-.13.04-.27.05-.4.32-2.3.54-4.55.71-6.8-1.63-.34-3.24-.72-4.8-1.11-.52-.13-1.05-.27-1.59-.41"/>
    <path class="cls-10" d="m232.13,147.8c-.2,1.17.66,2.02,1.63,2.02.4,0,.81-.14,1.17-.46.07-.06.15-.13.22-.2-1.01-.45-2.01-.91-3.03-1.36"/>
    <path class="cls-11" d="m238.28,106.65c-.15,1.73-.31,3.46-.47,5.19,1.87.54,3.8,1.01,5.72,1.27.04-1.84.06-3.66.09-5.51-1.76-.34-3.56-.62-5.34-.95"/>
    <path class="cls-11" d="m234.03,136.17c-.07.28-.15.56-.22.84-.27.96-.46,1.91-.62,2.84,1.57.11,3.13.25,4.58.63.09.02.18.04.26.04.77,0,1.14-.97.64-1.6-1.1-1.35-2.79-2.17-4.64-2.75"/>
    <path class="cls-11" d="m241.76,81.55c-.09.58-.19,1.16-.28,1.74,1.3.45,2.62.97,3.93,1.53.11-.85.2-1.72.28-2.57-1.29-.34-2.6-.59-3.93-.7"/>
    <path class="cls-11" d="m244.11,56.77c-.05,1.48-.12,2.97-.19,4.45.67.08,1.35.17,2.02.26-.06-1.44-.12-2.89-.18-4.32-.54-.14-1.1-.27-1.66-.39"/>
    <path class="cls-7" d="m272.87,69.53c-.24,0-.46.15-.46.46-.02,2.19-.28,4.46-.7,6.77.38.21.75.43,1.12.64.37-2.51.58-5,.52-7.41-.01-.31-.25-.46-.49-.46m-2.56,13.46c-.76,2.83-1.62,5.66-2.46,8.37.67.15,1.36.28,2.05.38.54-2.58,1.17-5.23,1.74-7.92-.45-.28-.89-.57-1.33-.83m-2.91,9.85c-.38,1.23-.75,2.45-1.09,3.62-.5,1.72-1.03,3.42-1.6,5.1.84.69,1.7,1.35,2.58,2.01.82-3.15,1.54-6.35,2.17-9.65.07-.34.13-.69.2-1.04-.21.01-.43.01-.65.01-.53,0-1.08-.02-1.61-.06m-5.29,16.11c-1.26,3.49-2.52,6.99-3.63,10.56-.63,1.99-1.3,3.94-2.02,5.87,1.39-.04,2.77-.15,4.14-.28h.05c.9-2.91,1.8-5.85,2.79-8.79.65-1.92,1.27-3.82,1.86-5.71-1.08-.53-2.14-1.08-3.18-1.66m-8.62,23.87c-.65,1.55-1.31,3.1-1.99,4.65,1.69-.09,3.41-.36,5.07-.5.47-1.18.92-2.37,1.35-3.55-1.49-.18-2.96-.38-4.43-.6m-3.93,9.16c-.25.58-.5,1.17-.75,1.75-1.11,2.63-2.06,5.33-2.98,8.04.73.02,1.47.02,2.2.02h2.64c1.14-3.23,2.32-6.44,3.65-9.6-1.61,0-3.21-.01-4.76-.21m-6,16.45c-.63,2.12-.83,4.03.06,6.39.07.2.17.36.28.49.32.14.63.27.95.41.47-.02.95-.32,1.17-.9.78-2.04,1.53-4.1,2.25-6.16-1.57-.06-3.15-.11-4.71-.24"/>
    <path class="cls-10" d="m271.72,76.77c-.37,2.06-.85,4.14-1.41,6.22.44.27.89.56,1.34.84.46-2.14.88-4.29,1.18-6.43-.37-.21-.75-.43-1.11-.63"/>
    <path class="cls-10" d="m264.72,101.57c-.83,2.49-1.72,4.94-2.6,7.39,1.04.58,2.11,1.12,3.18,1.66.71-2.34,1.39-4.68,2-7.03-.88-.66-1.74-1.33-2.58-2.01"/>
    <path class="cls-10" d="m260.64,125.11h-.05c-1.37.13-2.76.25-4.14.28-.94,2.51-1.93,4.98-2.96,7.44,1.47.22,2.94.43,4.43.6.98-2.76,1.86-5.53,2.72-8.32"/>
    <path class="cls-10" d="m245.83,151.78c-.51,1.48-1.01,2.96-1.53,4.43-.28.78-.53,1.52-.75,2.23,1.56.13,3.14.18,4.71.24.81-2.29,1.6-4.58,2.4-6.87h-2.63c-.73,0-1.48,0-2.21-.02"/>
    <path class="cls-11" d="m256.57,136.98c-1.67.14-3.37.4-5.07.5-.65,1.49-1.3,3.01-1.94,4.51,1.55.2,3.14.21,4.76.21.32-.76.65-1.5.98-2.26.45-.98.86-1.97,1.27-2.96"/>
    <path class="cls-11" d="m267.85,91.37c-.15.5-.31.98-.45,1.48.53.04,1.08.06,1.61.06.22,0,.44,0,.65-.01.08-.38.15-.76.24-1.15-.69-.09-1.37-.22-2.05-.38"/>
    <path class="cls-11" d="m243.9,165.32c.25.27.57.4.9.4h.04c-.31-.13-.62-.27-.94-.4"/>
    <path class="cls-7" d="m296.65,111.63c-.09,0-.2.05-.28.14-2.11,2.69-4,5.51-5.75,8.41.38.2.77.41,1.15.62,1.57-2.96,3.3-5.81,5.32-8.48.22-.3-.11-.69-.43-.69m-8.36,12.55c-1.48,2.64-2.88,5.33-4.25,8.02.62.46,1.23.94,1.84,1.41,1.24-2.91,2.49-5.84,3.82-8.68-.46-.25-.94-.5-1.41-.75m-8.28,15.85c-.88,1.68-1.78,3.35-2.71,5.01.08.04.15.09.22.15.77.63,1.59,1.12,2.42,1.61.86-1.7,1.69-3.45,2.49-5.2-.79-.54-1.6-1.07-2.42-1.57m-4.52,8.13c-.46.77-.94,1.54-1.42,2.3-1.39,2.18-2.87,4.3-4.4,6.38,1.09.56,2.02,1.2,2.87,1.89,1.76-2.43,3.45-4.91,4.97-7.49.17-.27.32-.54.47-.82-.84-.73-1.68-1.48-2.49-2.26m-10.7,15.04c-1.85,2.37-3.71,4.72-5.49,7.12-.44.58-.94,1.22-1.44,1.88,1.01.69,1.98,1.41,2.91,2.18,2.2-3.07,4.52-6.06,6.83-9.07-.79-.76-1.69-1.46-2.81-2.11m-8.76,11.47c-1.48,2.15-2.77,4.51-2.97,6.82.83.28,1.65.59,2.46.94,1.18-2.06,2.47-4.06,3.81-6.01-1.04-.63-2.13-1.21-3.3-1.74"/>
    <path class="cls-10" d="m290.61,120.17c-.81,1.31-1.57,2.65-2.32,4,.47.25.95.5,1.42.75.65-1.4,1.34-2.77,2.06-4.13-.39-.2-.78-.4-1.16-.62"/>
    <path class="cls-10" d="m284.04,132.2c-1.34,2.62-2.66,5.23-4.03,7.83.83.51,1.63,1.04,2.42,1.57,1.2-2.64,2.32-5.32,3.45-7.99-.59-.47-1.21-.95-1.84-1.41"/>
    <path class="cls-10" d="m269.67,156.84c-1.59,2.14-3.22,4.26-4.87,6.36,1.11.65,2.01,1.35,2.81,2.12,1.67-2.18,3.34-4.36,4.94-6.57-.84-.7-1.79-1.34-2.88-1.91"/>
    <path class="cls-10" d="m253.06,181.49c-.04.36-.04.7-.01,1.05.05.66.63,1.12,1.2,1.12.34,0,.67-.17.9-.56.12-.22.25-.46.38-.69-.82-.34-1.63-.65-2.46-.94"/>
    <path class="cls-11" d="m277.31,145.04c-.59,1.05-1.2,2.1-1.82,3.14.82.77,1.65,1.52,2.5,2.26.69-1.2,1.34-2.4,1.97-3.62-.83-.49-1.66-.99-2.42-1.62-.07-.06-.15-.11-.22-.15"/>
    <path class="cls-11" d="m257.85,172.2c-.6.78-1.23,1.61-1.82,2.47,1.17.54,2.27,1.11,3.3,1.74.47-.69.95-1.36,1.43-2.04-.94-.77-1.91-1.49-2.91-2.18"/>
    <path class="cls-7" d="m373.29,198.51c-.5,0-.99,0-1.5.01.09.85.19,1.72.3,2.57.05.41.08.85.09,1.33,1.6-.52,3.18-1.05,4.75-1.6,1.21-.41.99-2.15-.3-2.23-1.11-.06-2.23-.08-3.34-.08m-5.21.2c-2.56.19-5.11.5-7.66.9.09,2.05.24,4.1.56,6.12,2.49-.66,4.95-1.37,7.39-2.12-.17-1.7-.24-3.4-.28-4.9m-11.9,1.62c-3.02.56-6.03,1.18-9.03,1.81-.5.11-1.01.21-1.52.32-.14,2.29-.44,4.57-.58,6.87,3.78-.69,7.54-1.5,11.28-2.42.01-2.19,0-4.38-.15-6.58m-18.54,3.72c-3.15.57-6.3,1.05-9.46,1.36.52,1.99.85,4.01.97,6.11,2.68-.24,5.36-.54,8.04-.92.11-2.19.34-4.37.45-6.55m-25.57,1.44c-.45,1.98-1.17,3.91-1.68,5.9,1.53.05,3.05.17,4.59.28,2.02.15,4.06.31,6.09.31.36,0,.7,0,1.04-.01.05-2.05-.24-4.12-.72-6.18h-.43c-1.25,0-2.51-.04-3.77-.12-1.72-.11-3.42-.17-5.13-.18m-3.82.04c-1.61.04-3.22.11-4.83.21.19,2.06.06,3.99-.32,5.85,1.67-.11,3.34-.19,5.01-.22h.54c-.21-1.97-.28-3.87-.4-5.84m-13.51.96c-2.75.3-5.51.63-8.28.97-2.98.37-6.16.64-9.33,1.08.14,1.55.2,3.05.18,4.46,5.65-.36,11.44-.19,16.35-.63.33-.02.67-.06,1.01-.08.38-1.99.37-3.92.07-5.8m-25.98,3.82c-2.73.86-5.3,2.05-7.58,3.78-1.09.82-.49,2.38.63,2.38.2,0,.43-.05.65-.17,1.92-.99,4.04-1.69,6.28-2.19.08-1.23.08-2.51.02-3.8"/>
    <path class="cls-10" d="m360.43,199.6c-1.42.22-2.83.46-4.25.72.15,2.2.17,4.39.17,6.59,1.55-.38,3.09-.78,4.63-1.2-.31-2.01-.45-4.06-.54-6.12"/>
    <path class="cls-10" d="m345.64,202.46c-2.66.56-5.33,1.1-7.99,1.59-.11,2.18-.34,4.36-.45,6.55,2.63-.36,5.24-.78,7.86-1.27.14-2.3.44-4.58.58-6.87"/>
    <path class="cls-10" d="m328.19,205.41c-2.26.22-4.52.36-6.8.37.49,2.07.77,4.14.72,6.19.18-.01.37-.01.54-.02,2.15-.09,4.32-.24,6.5-.44-.12-2.08-.45-4.11-.97-6.1"/>
    <path class="cls-10" d="m303.41,205.74c-2.89.18-5.78.44-8.68.76.3,1.88.31,3.8-.06,5.79,2.81-.25,5.61-.51,8.42-.7.38-1.86.51-3.79.32-5.85"/>
    <path class="cls-10" d="m277.13,208.54c-2.84.39-5.68.92-8.37,1.78.07,1.29.06,2.57-.02,3.79,2.72-.6,5.64-.92,8.57-1.11.04-1.4-.02-2.9-.18-4.45"/>
    <path class="cls-11" d="m311.09,205.48c-.95,0-1.89.01-2.84.04.12,1.97.19,3.88.4,5.84h.21c.51,0,1.02.01,1.53.02.51-1.99,1.23-3.92,1.67-5.9h-.97"/>
    <path class="cls-11" d="m371.8,198.52c-1.24.02-2.47.09-3.72.19.06,1.5.13,3.2.3,4.9,1.28-.39,2.55-.79,3.81-1.2-.02-.47-.06-.91-.11-1.33-.11-.85-.2-1.72-.28-2.57"/>
    <path class="cls-7" d="m359.91,190.61c.11,1.01.19,2.02.25,3.04,1.04-.17,2.1-.37,3.16-.59,1.02-.22,1.07-1.97,0-2.14-1.15-.18-2.29-.27-3.41-.31m-15.11.08c.18,1.33.34,2.65.49,3.99,3.4-.04,6.75-.12,10.16-.44-.18-1.17-.37-2.37-.58-3.54-1.18.05-2.36.08-3.55.08h-.73c-1.92-.04-3.85-.07-5.78-.09m-7.91.09c-.67.04-1.35.07-2.02.12-3.95.28-7.89.49-11.82.65.44,1.23.89,2.46,1.35,3.69,3.48-.07,6.93-.36,10.47-.45.83-.02,1.65-.05,2.45-.06-.12-1.31-.26-2.63-.43-3.95m-20.59,1.01c-2.5.08-4.98.15-7.48.22.21.45.43.89.65,1.34.14.26.28.53.41.81,2.57.3,5.14.6,7.71.84-.44-1.08-.88-2.15-1.29-3.21m-12.61.39c-.36.01-.7.02-1.05.04-.81.02-.79,1.21,0,1.26.59.05,1.18.08,1.78.13-.25-.46-.49-.94-.72-1.42"/>
    <path class="cls-10" d="m358.72,190.59c-1.23,0-2.45.05-3.68.09-.06.01-.12.01-.17.01.21,1.18.4,2.37.58,3.55,1.55-.14,3.13-.34,4.71-.59-.06-1.02-.14-2.04-.25-3.05-.4-.01-.79-.01-1.2-.01"/>
    <path class="cls-10" d="m342.46,190.68c-1.86,0-3.72.04-5.56.12.17,1.31.31,2.64.43,3.95,2.71-.05,5.36-.04,7.97-.07-.14-1.33-.31-2.66-.49-3.99-.78-.01-1.56-.01-2.34-.01"/>
    <path class="cls-10" d="m323.06,191.55c-2.25.09-4.5.17-6.75.24.41,1.07.85,2.13,1.29,3.21.39.04.78.07,1.17.11,1.44.11,2.87.15,4.29.15.45,0,.9,0,1.35-.01-.46-1.23-.91-2.46-1.35-3.69"/>
    <path class="cls-11" d="m308.83,192.02c-1.7.05-3.41.11-5.13.17.24.47.47.95.72,1.42,1.82.15,3.65.36,5.47.56-.13-.27-.27-.54-.41-.82-.22-.44-.44-.89-.65-1.33"/>
    <path class="cls-7" d="m201.29,251.53h-.06c.57.52,1.12,1.07,1.66,1.63.06-.99-.79-1.63-1.6-1.63m-2.88,7.42c-1.85,6.68-3.93,13.14-4.17,20.32,0,.22-.01.45-.02.67.5.71.99,1.44,1.52,2.19.81,1.17,1.75,2.23,2.79,3.18-.01-.43-.02-.86-.02-1.3-.09-5.39-.07-10.54.82-15.87.39-2.36.98-4.63,1.59-6.89-.79-.81-1.62-1.57-2.5-2.31m-4.38,30.51c-.09,7.64-.06,15.27-.11,22.9,0,1.72-.11,3.49-.18,5.28.11.08.21.18.31.26,1.48,1.21,3.11,2.4,4.85,3.53-.15-2.1-.13-4.23-.14-6.5-.04-7.54-.07-15.1-.15-22.64-.89-.49-1.8-.98-2.72-1.54-.66-.39-1.28-.83-1.86-1.29m-.21,35.1c.04.43.09.86.17,1.28.59,3.84,1.88,8.1,2.91,11.84,1.15,4.18,1.98,8.37,2.84,12.54,2.17,1.08,4.4,1.88,7.15,2.45-.37-3.91-1.22-7.78-2.37-11.21-1.43-4.25-2.75-8.54-4.18-12.79-2.2-1.33-4.43-2.63-6.52-4.11m7.74,33.7c.52,2,1.1,3.99,1.79,5.97.02.05.04.09.06.13h.36c.85,0,1.7-.04,2.57-.09v-.04c.34-1.49.56-3.05.67-4.65-.9-.12-1.79-.28-2.7-.51-.95-.22-1.86-.5-2.75-.81"/>
    <path class="cls-10" d="m199.73,350.22c.56,2.69,1.14,5.38,1.82,8.04.89.31,1.8.58,2.76.82.9.21,1.8.38,2.69.5.15-2.25.11-4.58-.12-6.9-2.75-.57-4.98-1.37-7.15-2.45"/>
    <path class="cls-10" d="m193.74,317.64c-.09,2.33-.15,4.66.07,6.93,2.1,1.48,4.32,2.78,6.52,4.11-.05-.12-.08-.25-.12-.37-.81-2.36-1.16-4.59-1.31-6.88-1.74-1.12-3.37-2.32-4.84-3.53-.11-.08-.21-.18-.32-.26"/>
    <path class="cls-10" d="m194.22,279.95c-.09,3.17-.15,6.35-.19,9.52.57.46,1.18.9,1.85,1.29.92.54,1.84,1.04,2.73,1.53-.02-2.32-.06-4.64-.09-6.96-1.03-.97-1.98-2.01-2.79-3.18-.51-.75-1.01-1.48-1.5-2.19"/>
    <path class="cls-10" d="m201.23,251.53c-.54.02-1.05.34-1.21,1.07-.47,2.17-1.03,4.27-1.61,6.36.86.73,1.7,1.5,2.5,2.31.7-2.6,1.43-5.2,1.94-7.87.02-.08.02-.15.04-.22-.53-.57-1.09-1.11-1.66-1.63"/>
    <path class="cls-11" d="m206.33,364.26c-.85.06-1.7.11-2.57.11h-.36c.28.63.94.98,1.56.98s1.18-.34,1.36-1.09"/>
    <path class="cls-7" d="m211.64,287.68c-.27,0-.53.18-.54.53-.02,1.21-.09,3.62-.15,6.89.45.45.94.91,1.43,1.37-.07-2.75-.13-5.51-.18-8.26-.01-.36-.28-.53-.56-.53m-.79,13.47c-.08,7.19-.06,16.42.32,25.86,1.09.28,2.18.51,3.28.66-1.14-8.45-1.63-16.92-1.91-25.42-.41-.27-.82-.53-1.21-.78-.17-.11-.33-.21-.49-.32m.72,33.81c.4,6.31.99,12.48,1.86,17.94,1.73-.18,3.46-.5,5.19-.83-.92-5.13-1.7-10.28-2.7-15.4-.06-.26-.11-.53-.15-.79-1.07-.11-2.11-.3-3.14-.58-.36-.11-.71-.21-1.05-.33m8.41,23.93c-1.75.27-3.5.53-5.26.71.32,1.35.66,2.63,1.03,3.82h.28c1.17,0,2.34.07,3.53.27,1.22.21.73,1.86-.26,1.98-.89.11-1.76.25-2.62.41,1.69,4.26,3.87,6.86,6.64,6.86.45,0,.91-.07,1.4-.21.86-.25,1.22-1.41.54-2.06-3.56-3.37-4.36-7.28-5.29-11.78"/>
    <path class="cls-10" d="m218.62,352.08c-1.74.33-3.47.65-5.2.83.38,2.38.81,4.63,1.29,6.7,1.75-.18,3.5-.44,5.27-.71-.09-.43-.18-.85-.27-1.29-.4-1.84-.76-3.68-1.09-5.53"/>
    <path class="cls-10" d="m211.17,327.02c.11,2.65.24,5.32.4,7.96.36.12.71.22,1.05.33,1.03.28,2.08.47,3.14.58-.52-2.73-.95-5.47-1.31-8.2-1.09-.15-2.19-.38-3.28-.66"/>
    <path class="cls-10" d="m210.94,295.11c-.04,1.79-.07,3.81-.09,6.05.15.11.32.21.49.32.4.25.81.51,1.21.78-.06-1.93-.12-3.85-.17-5.78-.5-.47-.97-.94-1.43-1.37"/>
    <path class="cls-11" d="m216.03,363.43h-.28c.3.95.6,1.84.94,2.66.86-.17,1.73-.3,2.62-.41,1.01-.12,1.48-1.76.27-1.98-1.18-.19-2.37-.27-3.54-.27"/>
    <path class="cls-7" d="m228.62,334.45c-.63.15-1.25.3-1.89.44-.19.34-.24.77-.02,1.22,1.79,3.61,1.5,8.99,2.15,13.04.07.45.14.9.21,1.34,1.08-.13,2.15-.27,3.23-.41-.7-5.1-1.03-10.88-3.4-15.25-.08-.15-.18-.27-.28-.37m4.7,23.15h-1.52c-.62,0-1.23.02-1.85.05.17,1.28.34,2.55.57,3.8.57,3.24,1.69,8.58,5.52,9.35.07.01.14.02.21.02.84,0,1.43-1.01.76-1.7-2.47-2.57-3.21-7.28-3.69-11.52"/>
    <path class="cls-10" d="m232.3,350.07c-1.08.14-2.15.28-3.23.43.34,2.38.58,4.77.89,7.15.62-.02,1.23-.04,1.85-.04h.73c.26,0,.52,0,.78-.01-.22-1.94-.4-3.79-.66-5.28-.13-.73-.25-1.48-.36-2.25"/>
    <path class="cls-10" d="m227.9,334.18c-.46,0-.94.28-1.17.71.63-.14,1.27-.28,1.89-.43-.21-.2-.46-.28-.72-.28"/>
    <path class="cls-7" d="m260.46,247.32c-.72.79-1.48,1.56-2.25,2.3.62.9,1.21,1.84,1.79,2.78-.12-.34-.07-.73.24-1.02.64-.6,1.28-1.22,1.91-1.84-.54-.76-1.1-1.5-1.68-2.23m3.04,4.21c-.65.52-1.31,1.02-2,1.5-.17.13-.34.18-.52.18-.26,0-.51-.13-.7-.32,1.41,2.4,2.68,4.97,3.86,7.59.94-1.15,1.84-2.3,2.71-3.41-1.05-1.91-2.15-3.75-3.35-5.54m6.36,11.38c-1.05,1.16-2.13,2.29-3.22,3.41,1.18,2.87,2.29,5.67,3.39,8.29.12.27.24.54.34.82,1.22-1.09,2.5-2.08,3.81-3.05-1.4-3.17-2.82-6.36-4.32-9.46m5.69,12.59c-1.15,1.26-2.37,2.46-3.61,3.59.56,1.28,1.12,2.57,1.7,3.86,1.33-.94,2.68-1.82,4.04-2.71-.72-1.57-1.42-3.15-2.13-4.74m5.41,11.48c-1.41.85-2.78,1.7-4.16,2.59,1.34,2.68,2.76,5.32,4.27,7.86,1.48-.86,2.94-1.79,4.32-2.79-.77-1.18-1.52-2.39-2.23-3.62-.77-1.33-1.5-2.66-2.21-4.04m6.93,11.33c-1.41,1.05-2.89,2.02-4.42,2.96,1.48,2.26,3.1,4.55,4.82,6.81,1.56-.98,3.1-2.02,4.61-3.11-1.72-2.18-3.4-4.38-5.01-6.65m8.5,11c-1.59,1.01-3.17,2.01-4.77,3,2.82,3.45,5.78,6.77,8.69,9.82,1.41-.99,2.83-2,4.25-3.02-1.23-1.35-2.42-2.72-3.53-4.11-1.55-1.91-3.1-3.79-4.64-5.68m12.82,14.62c-1.34,1.03-2.69,2.05-4.06,3.03,4.39,4.13,10.17,8.7,15.04,8.7h.32c1.07-.05,1.39-1.39.53-1.98-4.1-2.79-8.11-6.14-11.83-9.76"/>
    <path class="cls-10" d="m304.55,319.11c-1.42,1.01-2.83,2.01-4.25,3.01.27.28.54.57.82.85,1.1,1.12,2.49,2.53,4.04,4,1.36-.99,2.71-2,4.05-3.03-1.61-1.57-3.16-3.18-4.65-4.83"/>
    <path class="cls-10" d="m292.9,304.97c-1.5,1.09-3.04,2.13-4.61,3.11,1.08,1.42,2.19,2.83,3.33,4.21,1.6-.98,3.18-1.98,4.77-2.98-1.17-1.44-2.34-2.89-3.49-4.35"/>
    <path class="cls-10" d="m277.68,280.23c-1.36.89-2.71,1.79-4.04,2.71,1.01,2.23,2.06,4.44,3.16,6.63,1.37-.88,2.75-1.74,4.16-2.58-1.15-2.2-2.23-4.48-3.28-6.76"/>
    <path class="cls-10" d="m266.85,257.07c-.88,1.12-1.78,2.27-2.71,3.42.88,1.93,1.7,3.9,2.51,5.84,1.08-1.14,2.17-2.26,3.21-3.42-.96-1.98-1.95-3.93-3.01-5.84"/>
    <path class="cls-10" d="m256.78,243.72c-1.1,0-2.08,1.5-1.11,2.62.89,1.03,1.74,2.13,2.53,3.29.78-.75,1.53-1.52,2.26-2.31-.85-1.08-1.75-2.12-2.69-3.13-.31-.33-.65-.47-.99-.47"/>
    <path class="cls-11" d="m262.13,249.55c-.63.63-1.27,1.23-1.89,1.84-.31.3-.36.67-.25,1.03.09.15.19.32.28.49.19.2.44.33.71.33.17,0,.34-.06.52-.18.67-.5,1.34-.99,2-1.52-.45-.67-.9-1.34-1.37-1.99"/>
    <path class="cls-11" d="m285.4,294.65c-1.39,1.01-2.84,1.93-4.32,2.79.62,1.03,1.24,2.06,1.88,3.05.17.26.33.52.51.78,1.53-.94,3.01-1.91,4.42-2.96-.85-1.21-1.68-2.43-2.49-3.67"/>
    <path class="cls-11" d="m274.18,272.38c-1.31.96-2.59,1.95-3.81,3.05.52,1.22,1.04,2.44,1.57,3.66,1.24-1.12,2.46-2.33,3.61-3.6-.46-1.03-.91-2.07-1.37-3.11"/>
    <path class="cls-7" d="m296.21,286.1c-.19.11-.37.25-.51.43.17-.14.34-.28.51-.43m3.58,2.79c-.7.59-1.4,1.17-2.11,1.74,1.76,2.24,3.34,4.61,4.9,6.99.78-.58,1.55-1.16,2.33-1.73-1.65-2.38-3.32-4.75-5.13-7m8.75,12.15c-.83.6-1.66,1.2-2.49,1.79.49.69.98,1.37,1.48,2.05,2,2.66,3.68,5.59,5.62,8.3.9-.59,1.8-1.16,2.71-1.73-1.62-2.45-3.11-4.96-4.96-7.28-.82-1.02-1.6-2.06-2.37-3.13m10.62,14.93c-.7.52-1.4,1.07-2.07,1.63,1.34,1.17,2.71,2.29,3.85,3.69.11.13.25.18.39.18.37,0,.75-.37.62-.77-.65-1.84-1.67-3.29-2.78-4.74"/>
    <path class="cls-10" d="m315.86,311.44c-.91.57-1.81,1.14-2.71,1.73.45.63.91,1.26,1.39,1.85.77.96,1.65,1.79,2.55,2.58.67-.57,1.37-1.11,2.07-1.63-.63-.82-1.29-1.65-1.93-2.53-.47-.65-.92-1.31-1.36-1.99"/>
    <path class="cls-10" d="m304.91,295.88c-.78.57-1.55,1.15-2.33,1.73,1.15,1.75,2.29,3.5,3.48,5.21.83-.59,1.65-1.18,2.47-1.78-1.23-1.7-2.43-3.43-3.62-5.16"/>
    <path class="cls-11" d="m296.75,285.97c-.19,0-.37.05-.54.13-.17.14-.33.28-.51.43-.38.49-.49,1.21.05,1.8.67.75,1.31,1.52,1.94,2.31.7-.57,1.4-1.15,2.1-1.74-.69-.85-1.4-1.68-2.14-2.5-.27-.3-.58-.43-.89-.43"/>
    <path class="cls-7" d="m318.83,275.66c-.4,0-.75.52-.39.9,1.29,1.4,2.64,2.91,4.06,4.48.06-.08.12-.15.18-.24.26-.33.5-.69.73-1.04-1.47-1.28-2.89-2.6-4.24-3.94-.11-.11-.22-.15-.34-.15m9.44,8.05c-.43.62-.92,1.23-1.47,1.86,1.31,1.3,2.66,2.57,4.08,3.75.63-.81,1.27-1.61,1.94-2.37-1.55-1.03-3.08-2.12-4.56-3.24"/>
    <path class="cls-10" d="m323.41,279.76c-.24.36-.49.7-.75,1.04-.06.07-.12.15-.18.22,1.37,1.5,2.81,3.04,4.3,4.53.56-.62,1.05-1.24,1.48-1.85-1.68-1.28-3.29-2.59-4.85-3.95"/>
    <path class="cls-7" d="m335.87,288.91c-.26.98-.53,1.95-1.03,2.87-.07.12-.13.24-.19.34,1.95,1.28,4.01,2.31,6.17,2.98.69-.79,1.33-1.61,1.89-2.46-2.31-1.11-4.61-2.37-6.84-3.73m10.98,6.12c-.21.3-.44.58-.66.88-.02.01-.04.04-.06.06.54-.05.78-.5.72-.94"/>
    <path class="cls-10" d="m342.71,292.65c-.57.84-1.21,1.67-1.89,2.46,1.68.52,3.41.83,5.21.86h.11s.04-.05.05-.07c.22-.28.45-.57.66-.86-.04-.33-.24-.65-.59-.79-1.18-.5-2.37-1.03-3.54-1.6"/>
    <path class="cls-11" d="m332.82,286.96c-.67.75-1.31,1.55-1.94,2.36,1.22,1.02,2.47,1.97,3.77,2.81.07-.11.13-.22.2-.34.5-.91.77-1.88,1.03-2.87-1.03-.63-2.05-1.28-3.05-1.95"/>
  </g>
</svg>